<svg xmlns="http://www.w3.org/2000/svg" xmlns:xlink="http://www.w3.org/1999/xlink" width="82" height="82" viewBox="0 0 82 82">
  <defs>
    <clipPath id="clip-path">
      <rect id="Rectangle_34" data-name="Rectangle 34" width="82" height="82" transform="translate(471 3014)" fill="#369dba"/>
    </clipPath>
  </defs>
  <g id="innovation" transform="translate(-471 -3014)" clip-path="url(#clip-path)">
    <g id="_2b1iz8fFLmXBCUPfkKLvMrppleo" data-name="2b1iz8fFLmXBCUPfkKLvMrppleo" transform="translate(471.059 3014)">
      <path id="Path_8" data-name="Path 8" d="M0,0,.184.021C.881.1,1.577.2,2.268.3l.442.063L3.755.513l1.07.152L5.752.8,6.3.875l.609.088.18.025c1.1.16,1.1.16,1.459.538a2.953,2.953,0,0,1,.184,2.253c-.023.152-.045.3-.067.456-.055.377-.111.753-.167,1.132-.047.32-.094.64-.141.957q-.032.222-.067.444a3.045,3.045,0,0,0,.13,2.145,1.348,1.348,0,0,0,.9.522,2.394,2.394,0,0,0,1.654-.748c.227-.181.46-.354.691-.527l.266-.2.131-.1.548-.41.2-.149.4-.3.512-.384.206-.155.306-.229.091-.069a1.78,1.78,0,0,1,1.444-.392A2.443,2.443,0,0,1,16.9,6.812c.236.333.478.661.727.978.218.278.432.558.64.845.157.217.318.43.479.645.257.342.512.686.763,1.029.237.323.479.64.727.957.3.379.579.768.86,1.162l.105.145a1.654,1.654,0,0,1,.407,1.29,2.441,2.441,0,0,1-1.065,1.26l-.143.107q-.216.161-.433.322l-.127.094L19.361,16c-.35.257-.7.522-1.039.783-.222.17-.446.338-.671.5l-.132.1-.244.175a2.129,2.129,0,0,0-.942,1.121,1.563,1.563,0,0,0,.279,1.178,2.323,2.323,0,0,0,1.526.568l.194.028.41.057.64.09c.589.083,1.173.165,1.761.246l.579.081.385.052a2.151,2.151,0,0,1,1.577.717,2.56,2.56,0,0,1,.1,1.864c-.043.261-.084.522-.125.783l-.027.167c-.092.579-.175,1.157-.257,1.741-.025.179-.051.359-.077.538-.081.563-.161,1.132-.239,1.695-.036.259-.073.517-.109.778-.017.123-.034.246-.051.369-.023.171-.048.342-.072.512l-.02.151a1.979,1.979,0,0,1-.589,1.285,1.583,1.583,0,0,1-1.05.243l-.115-.007c-.439-.031-.876-.095-1.311-.16l-.452-.067-1.121-.165-.952-.14-.442-.066a2.432,2.432,0,0,0-1.884.156,1.406,1.406,0,0,0-.512.922,2.74,2.74,0,0,0,.881,1.8c.2.245.381.5.563.748.2.27.4.538.6.8.3.391.594.789.886,1.188l.24.326.137.188.119.162a1.522,1.522,0,0,1,.256,1.132A2.581,2.581,0,0,1,16.957,39.9l-.257.186-.134.1c-.235.172-.466.349-.7.527l-.273.208-.127.1c-.312.239-.63.474-.942.707-.579.424-1.147.855-1.72,1.29q-.283.216-.568.428l-.4.3-.258.193-.12.092a2.053,2.053,0,0,1-1.51.548c-.722-.164-1.116-.876-1.516-1.439-.165-.227-.336-.45-.507-.671-.26-.339-.517-.681-.768-1.024-.263-.359-.533-.717-.8-1.07l-.1-.138-.191-.25c-.066-.085-.13-.17-.195-.256a1.126,1.126,0,0,0-.3-.247l-.1-.063a1.634,1.634,0,0,0-1.162-.058,1.476,1.476,0,0,0-.748.86,4.27,4.27,0,0,0-.13.666l-.024.16c-.026.173-.051.347-.076.522l-.054.362q-.137.922-.265,1.843l-.024.173c-.038.272-.076.543-.113.819l-.041.3-.017.132a2.041,2.041,0,0,1-.676,1.429,2.179,2.179,0,0,1-1.582.146L.4,46.742.047,46.69l-.952-.141-.2-.029c-.635-.093-1.265-.182-1.9-.27L-4.089,46.1l-.886-.123-.845-.118-.31-.043c-1.208-.163-1.208-.163-1.562-.548L-7.8,45.1l-.06-.082c-.35-.553-.117-1.454-.025-2.063l.037-.257c.032-.223.065-.445.1-.671s.066-.451.1-.676c.043-.293.086-.589.129-.881l.08-.543.015-.1.043-.295.024-.168a2.157,2.157,0,0,0-.157-1.429,1.414,1.414,0,0,0-.978-.584,2.354,2.354,0,0,0-1.577.722c-.163.127-.33.25-.5.375l-.212.159-.1.077-.25.188c-.355.267-.712.533-1.07.794-.244.179-.485.361-.722.548-1.157.891-1.157.891-1.941.8a2.3,2.3,0,0,1-1.188-1.045l-.2-.274-.1-.137q-.205-.277-.413-.553l-.149-.2-.074-.1q-1.06-1.413-2.115-2.821l-.1-.131L-19.4,35.5l-.451-.6c-.983-1.3-.983-1.3-.9-1.976a2.768,2.768,0,0,1,1.265-1.4q.308-.223.614-.45l.125-.092q.425-.313.84-.64c.214-.164.432-.323.65-.483l.375-.276.248-.182c.118-.087.236-.174.353-.262l.107-.077a1.64,1.64,0,0,0,.7-.952,1.586,1.586,0,0,0-.371-1.275,4.636,4.636,0,0,0-2.212-.584l-.378-.053-.8-.113-.932-.131-.367-.051c-1.843-.259-1.843-.259-2.238-.758a2.691,2.691,0,0,1-.131-1.946l.031-.221q.042-.3.085-.594c.03-.208.059-.417.089-.625.05-.35.1-.7.15-1.05.058-.4.115-.809.172-1.208s.111-.778.166-1.173c.024-.165.047-.33.07-.5q.041-.293.083-.584l.03-.213c.192-1.367.192-1.367.717-1.828a2.454,2.454,0,0,1,1.879-.143l.261.037.686.1.686.1,1.045.15c.377.054.753.108,1.132.16l.13.018a2.093,2.093,0,0,0,1.541-.246,1.6,1.6,0,0,0,.436-1.132,2.88,2.88,0,0,0-.732-1.342l-.063-.084q-.156-.205-.314-.408c-.411-.533-.809-1.075-1.2-1.613-.175-.237-.351-.472-.533-.7-.865-1.116-.865-1.116-.855-1.71V8.222l0-.127a24.306,24.306,0,0,0-13.057,4.183l-.272.19a17.049,17.049,0,0,0-1.741,1.4c-.118.108-.237.214-.357.32-.284.256-.553.522-.824.794l-.242.241c-.278.278-.548.558-.8.86l-.142.164c-.309.361-.6.732-.881,1.116l-.07.1A22.438,22.438,0,0,0-37.259,20.1c-.065.121-.131.241-.2.361-.356.655-.655,1.331-.947,2.017l-.051.121a22.211,22.211,0,0,0-1.178,3.871l-.032.139a19.072,19.072,0,0,0-.429,3.8l0,.171a23.208,23.208,0,0,0,.824,6.708l.047.172a22.182,22.182,0,0,0,.927,2.642l.048.117a17.568,17.568,0,0,0,1.618,3.1c.079.12.154.242.229.364a11.928,11.928,0,0,0,.957,1.357c.113.14.221.283.33.426a12.671,12.671,0,0,0,1.142,1.321c.105.105.2.211.3.325a9.541,9.541,0,0,0,1.331,1.28c.15.122.289.252.429.385A14.88,14.88,0,0,0-30.167,50.1q1.006.681,1.956,1.429l.146.11.11.095v.1l.084.032a1.741,1.741,0,0,1,.412.371l.082.091c1.91,2.13,2.345,4.654,2.35,7.424q0,.279,0,.558,0,.791.006,1.582c0,.325,0,.65,0,.973q0,.184,0,.369a3.726,3.726,0,0,0,.235,1.71l.058.126a2.749,2.749,0,0,0,1.572,1.357,3.481,3.481,0,0,0,1.039.113h4.167l2.038,0,1.577,0h2.152a3.532,3.532,0,0,0,2.652-.789,3.815,3.815,0,0,0,.789-2.939q0-.2,0-.4c0-.382,0-.763,0-1.147,0-.517,0-1.034.006-1.557,0-.191,0-.383,0-.573a9.97,9.97,0,0,1,2.985-7.424,7.061,7.061,0,0,1,.922-.753l.214-.156c.373-.272.748-.538,1.132-.8a15.451,15.451,0,0,0,1.592-1.254,1.57,1.57,0,0,1,.441-.3l.111.132c.278.327.558.65.85.963l.084.091.16.171q.146.156.29.314l.081.089a.646.646,0,0,1,.111.289,23.563,23.563,0,0,1-2.673,2.1A7.3,7.3,0,0,0-5.867,57.3a14.8,14.8,0,0,0-.15,2.33q0,.294,0,.589,0,.73,0,1.459c0,.413,0,.824,0,1.239,0,.191,0,.383,0,.573a6.11,6.11,0,0,1-.488,2.591l-.069.156a5.274,5.274,0,0,1-.7,1.075l-.094.118c-.068.082-.14.162-.213.24h-.1l-.051.154c-.1.089-.207.172-.317.253l-.088.067a3.415,3.415,0,0,1-.418.279c-.162.1-.162.1-.188.265v.174l0,.2c0,.073,0,.146,0,.219s0,.154,0,.231q0,.249,0,.5c0,.263,0,.527,0,.789,0,.416,0,.835,0,1.249,0,.742,0,1.49,0,2.232,0,.261,0,.522,0,.783q0,.245,0,.49c0,.075,0,.15,0,.225A5.891,5.891,0,0,1-10.3,79.912a5.575,5.575,0,0,1-2.212,1.347l-.107.036a9.084,9.084,0,0,1-2.693.28h-1.168c-.334,0-.666,0-1,0h-1.153a7.533,7.533,0,0,1-3.492-.681l-.1-.053a4.135,4.135,0,0,1-.865-.63l-.129-.106a5.112,5.112,0,0,1-1.613-2.657l-.051-.155A3.871,3.871,0,0,1-25,76.516l-.013-.176c-.046-.681-.041-1.367-.035-2.053q0-.356,0-.712v-.123c0-.082,0-.165,0-.248,0-.553,0-1.1.007-1.649,0-.375,0-.748,0-1.126,0-.2,0-.395,0-.594s0-.369,0-.553c0-.1,0-.2,0-.3a1.414,1.414,0,0,0-.072-.491,2.188,2.188,0,0,0-.563-.358,4.21,4.21,0,0,1-.365-.317l-.092-.087A5.61,5.61,0,0,1-27.5,65.473l-.046-.129a10.939,10.939,0,0,1-.217-3.318q0-.327,0-.655,0-.638.005-1.275a1.191,1.191,0,0,0-.4.289l-.114.116-.121.125-.258.262-.4.413-.391.4-.12.124a1.77,1.77,0,0,1-1.244.645,1.775,1.775,0,0,1-1.08-.384l-.136-.1-.139-.1-.268-.187-.139-.1q-.751-.523-1.51-1.039c-.309-.21-.62-.422-.922-.635-.126-.086-.256-.164-.387-.242l-.016.114c-.071.483-.166.963-.267,1.439l-.026.124q-.068.326-.137.65c-.047.222-.093.445-.139.666-.036.173-.073.346-.109.517-.017.082-.034.164-.051.246a2.261,2.261,0,0,1-.84,1.613,3.094,3.094,0,0,1-1.3.161h-1.749l-.942,0h-1.7a2.047,2.047,0,0,1-1.157-.25l-.107-.069a1.81,1.81,0,0,1-.49-.942l-.031-.125c-.144-.589-.263-1.183-.384-1.777l-.073-.354-.106-.517q-.149-.73-.3-1.459a1.873,1.873,0,0,0-.465.242l-.12.085-.129.092-.276.2-.144.1c-.236.165-.474.328-.712.49l-.283.192-.14.095c-.178.121-.356.244-.533.366-1.408.968-1.408.968-2.12.835a4.894,4.894,0,0,1-1.669-1.382l-.247-.246-.512-.512-.655-.655-.508-.507-.242-.241c-1.188-1.178-1.188-1.178-1.193-1.8a3.289,3.289,0,0,1,.87-1.746c.339-.472.661-.957.988-1.439q.282-.416.568-.829l.076-.111.065-.095c.076-.116.147-.235.218-.354l-.149-.027c-.712-.132-1.423-.278-2.135-.426l-.625-.129-.614-.127-.231-.047a2.29,2.29,0,0,1-1.582-.829,1.827,1.827,0,0,1-.211-1.029l0-.171c0-.186,0-.373,0-.558l0-.39c0-.238,0-.476,0-.712q0-.523-.005-1.045c0-.3,0-.6,0-.911q0-.193,0-.385c-.013-1.331-.013-1.331.422-1.859a3.152,3.152,0,0,1,1.608-.589l.219-.046.573-.12.579-.121c1.091-.229,1.091-.229,1.459-.3l.107-.021.294-.057a.543.543,0,0,0,.252-.084q-.46-.727-.952-1.434c-.142-.2-.283-.411-.424-.614l-.356-.517c-.23-.332-.458-.666-.676-1l-.111-.17a1.39,1.39,0,0,1-.181-1.111,5.55,5.55,0,0,1,1.521-1.818l.125-.126c.218-.22.437-.439.655-.661q.27-.271.538-.543l.655-.661.248-.25q.173-.175.348-.349l.1-.1a1.672,1.672,0,0,1,1.167-.563,2.793,2.793,0,0,1,1.521.727c.151.111.306.217.463.32.32.211.635.432.947.65.353.248.707.492,1.065.732l.115.078.1.068c.1.071.2.145.3.221.2-.753.354-1.516.512-2.273.558-2.693.558-2.693,1.106-3.082a1.967,1.967,0,0,1,1.1-.173l.006-.175c.027-.63.092-1.254.179-1.879l.02-.147a26.112,26.112,0,0,1,2.1-7.22l.057-.127a22.332,22.332,0,0,1,1.531-2.791l.1-.155q.129-.205.262-.408l.056-.087c.275-.426.568-.829.886-1.229.129-.161.251-.326.373-.492a9.907,9.907,0,0,1,.686-.809l.173-.2c.177-.2.359-.4.543-.6.135-.147.267-.3.4-.448a4.125,4.125,0,0,1,.468-.449c.17-.15.327-.313.485-.476A22.749,22.749,0,0,1-29.163,8.5l.092-.049c.691-.368,1.393-.7,2.1-1.019l.133-.058A23.445,23.445,0,0,1-19,5.485l.2-.013c.538-.034,1.075-.046,1.613-.045h.39a15.6,15.6,0,0,1,1.946.089A1.366,1.366,0,0,0-13.7,5.152q.173-.147.34-.3a4.314,4.314,0,0,1,.376-.291c.584-.421,1.167-.85,1.736-1.29.276-.217.553-.431.84-.635l.164-.119A1.714,1.714,0,0,1-8.9,2.286c.707.262,1.157,1.137,1.572,1.72.228.316.465.625.707.932s.493.645.732.973c.22.3.445.594.676.886a.69.69,0,0,1,.143.28l.154.051v.1l.2.1.111.057a1.454,1.454,0,0,0,1.014.1,2.731,2.731,0,0,0,.41-.2l.154-.051a.981.981,0,0,0,.1-.2l.051-.093a2.435,2.435,0,0,0,.254-.778l.025-.139c.115-.655.2-1.311.295-1.966.08-.579.162-1.152.245-1.731l.027-.188c.025-.175.051-.35.077-.522l.022-.154A1.971,1.971,0,0,1-1.337.22,1.774,1.774,0,0,1-.011.024ZM.62,2.806c-.1.62-.2,1.244-.291,1.869l-.023.157c-.046.316-.046.316-.092.635C.138,5.989.059,6.511-.049,7.034l-.024.117A3.752,3.752,0,0,1-1.67,9.5a4.258,4.258,0,0,1-3.113.63A5.105,5.105,0,0,1-7.789,7.832c-.229-.316-.466-.625-.7-.932-.174-.226-.344-.454-.51-.686l-.1-.137-.183-.258L-9.366,5.7l-.072-.1a.347.347,0,0,0-.281-.129.559.559,0,0,0-.187.126l-.109.088-.117.1-.249.2-.13.1c-.2.161-.413.314-.625.467l-.246.18-.12.088c-.5.369-1,.748-1.5,1.126l-.134.1c-.282.215-.563.432-.84.65a2.175,2.175,0,0,0,.266.426l.1.13.108.139c.307.4.609.8.906,1.208q.251.343.507.681a10.366,10.366,0,0,1,.722,1.05l.082.14a4.122,4.122,0,0,1,.3,3.082,4.072,4.072,0,0,1-1.9,2.33,4.324,4.324,0,0,1-1.951.457H-15a13.463,13.463,0,0,1-1.93-.217l-.722-.112-.174-.027c-.364-.055-.727-.1-1.1-.14l-.131-.014c-.1-.009-.2-.016-.3-.021-.1.1-.088.266-.107.4l-.016.11q-.026.181-.052.363l-.037.254c-.032.224-.065.449-.1.671s-.064.448-.1.671c-.037.259-.074.517-.111.778-.05.35-.1.7-.152,1.05l-.022.151c-.013.086-.026.172-.039.258a4.271,4.271,0,0,0-.04.727q.761.115,1.521.226l.707.1.363.052c2.033.291,2.033.291,2.555.584l.1.053a4.32,4.32,0,0,1,.742.517l.154.112a4.045,4.045,0,0,1,1.219,2.468A4.351,4.351,0,0,1-13.8,30.561a6.845,6.845,0,0,1-.952.8c-.184.133-.367.268-.548.4l-.124.091c-.367.27-.727.543-1.091.824a5.045,5.045,0,0,1-.993.7,2.326,2.326,0,0,0,.416.691l.1.128q.466.624.942,1.239c.218.285.433.573.645.86l.345.459.241.321.122.163.11.147c.1.133.2.264.309.394a.88.88,0,0,0,.4-.184l.114-.084.123-.093.129-.1c.573-.429,1.142-.865,1.71-1.3a5.144,5.144,0,0,1,4-1.3,4.039,4.039,0,0,1,2.483,1.587,5.044,5.044,0,0,1,.609,3.7l-.034.261q-.085.642-.184,1.28l-.018.117q-.042.272-.086.543a5.015,5.015,0,0,0-.078,1,7.241,7.241,0,0,0,.881.175l.136.02.443.063.309.044.645.092.829.118.64.091.305.044.427.06.127.018a3.719,3.719,0,0,0,.635.041c.11-.6.213-1.208.3-1.823l.022-.162q.044-.328.088-.655c.072-.543.145-1.08.262-1.618l.024-.11a3.993,3.993,0,0,1,1.613-2.345,4.425,4.425,0,0,1,3.369-.543,4.042,4.042,0,0,1,1.5.8l.16.118a14.989,14.989,0,0,1,1.731,2.2q.323.44.655.87.111.143.218.288l.1.129.081.112.075.077a.409.409,0,0,0,.343-.137l.113-.089.12-.1.252-.2.127-.1c.162-.126.327-.248.494-.369.31-.225.614-.455.917-.686.355-.271.712-.538,1.07-.8.328-.24.65-.483.963-.742a5.2,5.2,0,0,0-.553-.809l-.195-.248L14,36.907c-.129-.166-.251-.337-.374-.508-.1-.138-.2-.274-.309-.41-1.009-1.311-1.792-2.545-1.587-4.27a4.034,4.034,0,0,1,1.214-2.191l.1-.1a4.069,4.069,0,0,1,3.062-.988c.563.031,1.121.125,1.674.207l.4.057c.891.127.891.127,1.239.184l.177.028.158.026a3.121,3.121,0,0,0,.459.019,7.663,7.663,0,0,0,.175-.865l.02-.133q.032-.215.063-.431l.044-.3c.031-.21.061-.42.092-.63.039-.268.079-.538.118-.8.031-.207.061-.415.091-.625l.044-.3q.031-.208.06-.416l.018-.122a4.986,4.986,0,0,0,.041-.8l-.14-.02-1.316-.189-.676-.1-.655-.095-.248-.035c-1.551-.22-1.551-.22-2.1-.522l-.1-.053a2.963,2.963,0,0,1-.963-.717l-.094-.116h-.1l-.037-.082a3.732,3.732,0,0,0-.225-.359,4.19,4.19,0,0,1-.558-1.2l-.036-.113a3.892,3.892,0,0,1,.19-2.5l.063-.151a6,6,0,0,1,2.186-2.268c.318-.231.63-.471.942-.712q.319-.244.64-.484l.116-.086.214-.158a.822.822,0,0,0,.292-.288q-.491-.7-1.014-1.377-.342-.447-.676-.9-.75-1.021-1.536-2.023a1.563,1.563,0,0,0-.432.225l-.1.073-.1.079-.22.167-.113.087c-.173.132-.347.262-.522.392q-.308.23-.614.463c-1.239.937-2.447,1.792-4.086,1.613a4.1,4.1,0,0,1-2.688-1.536,5.4,5.4,0,0,1-.62-4.209q.036-.256.071-.512c.075-.538.15-1.075.237-1.613a2.956,2.956,0,0,0,.02-.661c-.088-.088-.208-.078-.329-.1l-.181-.025-.2-.027-.205-.029L4.514,3.31l-.563-.079-.783-.109L2.031,2.964l-.378-.053-.228-.032-.308-.043L.949,2.812A1.525,1.525,0,0,0,.6,2.8Zm-43.062,32.1a3.3,3.3,0,0,0-.189.609,3.077,3.077,0,0,1-1.137,2.038,2.888,2.888,0,0,1-1.8.476l-.124-.009a4.571,4.571,0,0,1-1.982-1c-.138-.1-.278-.2-.418-.291l-.159-.111c-.274-.19-.548-.377-.824-.563l-.121-.082-.108-.073a1.672,1.672,0,0,1-.2-.16c-.1-.075-.1-.075-.2-.057a.986.986,0,0,0-.351.262l-.143.141-.154.154-.158.157-.33.329q-.211.211-.424.421-.164.161-.325.324l-.157.155c-.073.072-.145.145-.218.218l-.125.125c-.094.105-.094.105-.074.224a2.139,2.139,0,0,0,.2.338l.1.142.1.15.107.155.3.437.07.1.058.084.267.386.151.218c.737,1.065.737,1.065.886,1.567l.037.118a2.7,2.7,0,0,1-.351,2.084,2.719,2.719,0,0,1-1.813,1.173c-.2.045-.4.088-.6.13l-.221.047-.573.121-.922.2-.322.068-.2.041-.173.036a.555.555,0,0,0-.237.083v3.277c.87.2,1.741.4,2.622.568A3.372,3.372,0,0,1-50.26,51a2.761,2.761,0,0,1,.413,2.017,4.477,4.477,0,0,1-.819,1.6c-.18.243-.348.494-.517.742-.154.227-.311.452-.472.676l-.1.14c-.065.09-.13.179-.2.268l-.088.123-.079.108a.2.2,0,0,0-.038.21.756.756,0,0,0,.245.3h.1l.1.2h.1l.051.154h.1l.04.091a1.259,1.259,0,0,0,.242.306l.094.1c.079.082.079.082.187.071l.042.093a.819.819,0,0,0,.215.266h.1l.1.2h.1l.051.154h.1l.04.092a.876.876,0,0,0,.248.279l.1.081.075.06a3.691,3.691,0,0,0,.469-.273l.155-.1.164-.11.168-.112c.291-.2.584-.392.865-.6a4.163,4.163,0,0,1,2.965-1.142A2.683,2.683,0,0,1-43.194,58a6.856,6.856,0,0,1,.8,2.54c.047.237.095.473.142.712.025.125.05.25.075.376a5.409,5.409,0,0,0,.2.829,1.783,1.783,0,0,0,.6.057h.143c.845,0,1.69-.033,2.535-.057q.078-.335.155-.671l.056-.242c.1-.45.2-.9.3-1.352l.023-.114c.037-.178.073-.357.108-.538a3.25,3.25,0,0,1,1.167-2.12,2.871,2.871,0,0,1,2.191-.389,4.891,4.891,0,0,1,1.475.783l.307.217.157.111c.253.178.509.352.763.527l.137.094c.28.19.558.379.84.563a1.438,1.438,0,0,0,.482-.368l.082-.082.266-.268.185-.185.486-.488.5-.5c.325-.326.65-.65.973-.978l-.071-.218-.04-.122a7.721,7.721,0,0,0-3.318-3.692q-.378-.259-.742-.538l-.1-.078c-.224-.169-.443-.343-.655-.522l-.087-.052c-.215.072-.254.222-.352.413a6.478,6.478,0,0,1-1.311,1.654c-.089.076-.089.076-.077.184l-.088.039a2,2,0,0,0-.357.265,8.221,8.221,0,0,1-5.888,1.782,7.977,7.977,0,0,1-3.538-1.219l-.155-.1a5.687,5.687,0,0,1-.855-.666,2.05,2.05,0,0,0-.242-.206,7.737,7.737,0,0,1-2.5-5.023,8.069,8.069,0,0,1,1.29-5.274l.095-.156a6.569,6.569,0,0,1,.937-1.126q.1-.1.2-.21a5.338,5.338,0,0,1,.947-.763l.164-.108a8.64,8.64,0,0,1,3.441-1.27,4.889,4.889,0,0,0-.259-1.152,18.985,18.985,0,0,1-.483-2.023l-.027-.139c-.144-.763-.144-.763-.177-1.039l-.027-.155-.1-.051Zm1.541,7.168-.116.014A5.527,5.527,0,0,0-44.6,44.069a5.933,5.933,0,0,0-.968,1.818l-.03.1a5.54,5.54,0,0,0,.465,4.153,4.424,4.424,0,0,0,.748,1.029.546.546,0,0,1,.15.2h.1l.051.154a3.307,3.307,0,0,0,.361.291l.111.082a6.184,6.184,0,0,0,1.167.65l.141.063a5.481,5.481,0,0,0,4.081-.06,5.732,5.732,0,0,0,2.852-2.77l.05-.1a.5.5,0,0,0,.072-.367c-.1-.134-.216-.26-.332-.382l-.153-.165-.078-.083c-.365-.391-.717-.789-1.05-1.208l-.08-.1a26.045,26.045,0,0,1-1.8-2.555c-.057-.093-.116-.184-.175-.276-.223-.35-.417-.712-.609-1.08l-.08-.154c-.118-.228-.235-.456-.349-.686L-40,42.513c-.047-.094-.094-.188-.14-.283-.08-.138-.08-.138-.207-.179a3.552,3.552,0,0,0-.543.031Zm18.587,27.189v2.714h10.906V69.267c-.092-.092-.218-.058-.34-.058H-21.976a.435.435,0,0,0-.34.058Zm0,5.427c-.006.122-.01.242-.01.364v.113c0,.079,0,.158,0,.237,0,.119,0,.238,0,.357a2.971,2.971,0,0,0,.819,2.248,3.169,3.169,0,0,0,2.33.789h1.9l1.024,0h1.848a3.1,3.1,0,0,0,1.47-.3l.1-.054A2.606,2.606,0,0,0-11.511,76.8a4.321,4.321,0,0,0,.113-1.224c0-.11,0-.22,0-.33a.948.948,0,0,0-.061-.594c-.139-.005-.277-.007-.416-.007h-10.1a.435.435,0,0,0-.34.058Z" transform="translate(58.013 0.418)" fill="#369dba"/>
      <path id="Path_9" data-name="Path 9" d="M0,0,.145.137A2.521,2.521,0,0,0,.417.37,3.644,3.644,0,0,1,.9.877l.126.142A10.045,10.045,0,0,1,2.635,3.5l.067.147a10.878,10.878,0,0,1,.758,2.4l.023.124a10.988,10.988,0,0,1-1.766,8.141A10.062,10.062,0,0,1,.9,15.319c-.133.145-.262.293-.391.442A2.085,2.085,0,0,1,.28,16h-.1v.1a7.734,7.734,0,0,1-1.895,1.382l-.114.065a11.016,11.016,0,0,1-8.295,1.039A10.545,10.545,0,0,1-14.472,16.2a1.84,1.84,0,0,0-.25-.208l-.114-.1v-.1l-.092-.04a.87.87,0,0,1-.272-.235l-.094-.111-.1-.126-.121-.14a11.007,11.007,0,0,1-2.33-4.69l-.03-.131a9.762,9.762,0,0,1-.2-2.156V8.03a10.626,10.626,0,0,1,1.3-5.084l.093-.177A9.689,9.689,0,0,1-15.145.695c.061-.071.122-.142.182-.215a10.394,10.394,0,0,1,6.5-3.164l.176-.02A10.764,10.764,0,0,1-.041.025ZM-9.831.313l-.191.065a8.443,8.443,0,0,0-3.436,2.427l-.076.087A8.272,8.272,0,0,0-15.4,8.883a7.561,7.561,0,0,0,1.633,4.127l.069.083a9.761,9.761,0,0,0,1.418,1.439l.084.068a8.087,8.087,0,0,0,4.675,1.685l.129.006a7.533,7.533,0,0,0,3.559-.773l.119-.058a7.278,7.278,0,0,0,1.47-.917l.083-.068A8.222,8.222,0,0,0-.2,12.238l.058-.1A7.906,7.906,0,0,0,.879,9.215l.014-.1A8.22,8.22,0,0,0,.572,5.629L.515,5.447A7.182,7.182,0,0,0-1.067,2.764q-.1-.113-.2-.227l-.163-.182L-1.5,2.27a5.718,5.718,0,0,0-.635-.558l-.088-.069A8.44,8.44,0,0,0-5.009.2L-5.141.163a6.2,6.2,0,0,0-1.086-.2l-.179-.019A8,8,0,0,0-9.821.306Z" transform="translate(65.642 15.719)" fill="#369dba"/>
      <path id="Path_10" data-name="Path 10" d="M0,0C.142.058.172.144.243.279c.181.327.378.64.579.957l.094.147.091.142.086.135c.066.1.133.2.2.295a.435.435,0,0,1,.08.337,1.388,1.388,0,0,1-.256.179A14.4,14.4,0,0,0-.693,3.86c-.12.1-.241.208-.362.311a5.476,5.476,0,0,0-.614.655l-.079.08h-.1L-1.891,5a1.515,1.515,0,0,1-.259.33A16.223,16.223,0,0,0-6.158,16.539,15.677,15.677,0,0,0-4.51,23.2c.049.093.095.186.139.281a12.343,12.343,0,0,0,1.546,2.473l.123.164A12.412,12.412,0,0,0-1.774,27.2c.075.08.148.162.221.244a6.083,6.083,0,0,0,.845.8c.141.114.271.235.4.359a9.293,9.293,0,0,0,1.065.809c.1.067.194.135.291.2a19.809,19.809,0,0,0,3.328,1.746,12.481,12.481,0,0,1,2.069,1.1l.1.068a7.3,7.3,0,0,1,.876.65v.1l.091.042a2.393,2.393,0,0,1,.5.407l.11.1a10.076,10.076,0,0,1,.937,1.034l.07.087a10.544,10.544,0,0,1,1.464,2.524l.042.1a10.971,10.971,0,0,1,.778,3.077l.02.169a9.786,9.786,0,0,1,.031,1.06H8.8l-.057-.609a8.94,8.94,0,0,0-2.094-5.023l-.11-.129a8.144,8.144,0,0,0-2.755-2.023c-.113-.053-.225-.107-.337-.161-.362-.175-.727-.344-1.1-.5A15.291,15.291,0,0,1-.21,32.049l-.163-.1c-.388-.253-.753-.533-1.116-.819l-.131-.1A18.789,18.789,0,0,1-3.335,29.5l-.266-.265a11.968,11.968,0,0,1-.957-1.075l-.151-.18A17.235,17.235,0,0,1-6.542,25.2c-.056-.1-.113-.2-.171-.3A17.463,17.463,0,0,1-8.449,20.07l-.03-.134A18.994,18.994,0,0,1-6.759,7.391l.05-.1a18.032,18.032,0,0,1,.973-1.638l.111-.173a12.83,12.83,0,0,1,.789-1.065c.073-.092.143-.184.215-.277a8.508,8.508,0,0,1,.855-.968c.111-.109.212-.219.313-.337a7.762,7.762,0,0,1,1.055-1c.144-.119.28-.243.416-.371a8.357,8.357,0,0,1,.906-.7C-.964.677-.854.6-.743.514L-.625.427C-.548.371-.472.315-.4.258L-.29.181-.2.112A.253.253,0,0,1,0,.082Z" transform="translate(30.978 15.566)" fill="#369dba"/>
      <path id="Path_11" data-name="Path 11" d="M0,0C.5.048,1.1.661,1.505.952c.223.162.448.321.671.479.339.239.676.481,1.014.722.259.187.517.372.778.558.339.239.676.481,1.014.722.259.187.517.372.778.558.339.239.676.481,1.014.722.259.187.517.372.778.558.666.467,1.326.942,1.971,1.434a6.969,6.969,0,0,1-.512.789l-.177.242-.091.124c-.148.2-.294.412-.44.62l-.081.115-.185.263a1.485,1.485,0,0,1-.568-.294l-.109-.076c-.309-.216-.614-.437-.922-.661-.26-.188-.522-.374-.783-.558-.3-.21-.6-.422-.891-.635L4.65,6.55l-.579-.419c-.4-.288-.794-.568-1.2-.845-.313-.213-.62-.43-.922-.661-.533-.4-1.08-.783-1.623-1.167-.609-.429-1.214-.87-1.813-1.306a1.976,1.976,0,0,1,.374-.62C-.832,1.17-.572.8-.316.417L-.236.3-.164.191A1.033,1.033,0,0,1,0,0Z" transform="translate(5.171 7.476)" fill="#369dba"/>
      <path id="Path_12" data-name="Path 12" d="M0,0C.074.289.148.579.222.865L.3,1.186c.164.645.328,1.285.492,1.93.28,1.1.563,2.207.85,3.308q.324,1.229.635,2.468l.048.188.249.983c.021.083.043.165.065.248a1.653,1.653,0,0,1,.071.548c-.48.153-.963.289-1.449.417l-.355.095-.227.06-.107.029a1.574,1.574,0,0,1-.419.065C-.429,9.355-.987,7.179-1.54,5.023c-.1-.4-.2-.794-.3-1.193-.087-.337-.173-.676-.259-1.014l-.16-.625q-.075-.293-.15-.584l-.056-.217-.076-.3L-2.588.924A.251.251,0,0,1-2.561.69,1.407,1.407,0,0,1-2.345.623l.139-.037.151-.039L-1.9.507l.489-.127L-.923.251l.3-.079L-.479.136-.356.1A1.048,1.048,0,0,1,0,.024Z" transform="translate(17.921)" fill="#369dba"/>
      <path id="Path_13" data-name="Path 13" d="M0,0C.08.324.161.645.241.973q.041.165.082.33.059.237.117.475l.037.148.034.14.03.122a1.921,1.921,0,0,1,.021.374c-.625.177-1.254.343-1.884.5l-.276.07-.742.186-.465.116-1.623.407-1.51.378-1.3.326-.773.194-.727.182-.266.067-.365.091-.1.027a5.106,5.106,0,0,1-.763.118c-.09-.256-.159-.517-.224-.778l-.034-.135-.071-.281q-.054-.215-.109-.43l-.069-.274-.033-.13-.03-.121-.027-.106a1.167,1.167,0,0,1-.019-.305c.41-.128.824-.236,1.239-.342l.215-.055.579-.146.365-.092q1.928-.488,3.856-.957l.406-.1.1-.025C-3.6.826-3.105.7-2.609.578L-2.282.5l.213-.054.105-.027.512-.13L-.894.142-.727.1A2.209,2.209,0,0,1,0,0Z" transform="translate(12.289 20.84)" fill="#369dba"/>
      <path id="Path_14" data-name="Path 14" d="M0,0A1.119,1.119,0,0,1,.543.333L.737.5l.1.084c.122.106.247.207.372.309.218.177.431.358.645.543q.361.311.732.6c.163.132.321.269.479.406.272.236.553.461.835.681.207.162.405.331.6.508.171.152.348.293.522.437s.319.265.477.4l.084.072L6,4.9c.314.268.635.527.957.778.226.177.439.365.65.558.185.165.381.316.579.465a5.4,5.4,0,0,1-.471.625l-.151.176-.075.088c-.181.213-.356.431-.533.65L6.7,8.561,6.581,8.7l-.084.1c-.284-.206-.553-.426-.819-.655Q5.41,7.925,5.139,7.7c-.236-.192-.468-.388-.7-.584q-.263-.223-.527-.44Q3.6,6.428,3.3,6.169c-.3-.251-.594-.5-.9-.742-.33-.268-.655-.538-.983-.814q-.263-.223-.527-.44C.541,3.889.2,3.6-.145,3.307s-.676-.568-1.019-.85c-.164-.134-.324-.272-.484-.411a5.113,5.113,0,0,1,.489-.64c.243-.279.475-.563.7-.855C-.312.364-.162.18-.01,0Z" transform="translate(66.41 57.808)" fill="#369dba"/>
      <path id="Path_15" data-name="Path 15" d="M0,0H8.584a3.06,3.06,0,0,1,.487.058c0,.371,0,.742,0,1.111,0,.126,0,.252,0,.379q0,.272,0,.543v.172c0,.052,0,.1,0,.158v.14c-.006.105-.006.105-.057.157-.121.005-.241.007-.361.007H-.1c-.246,0-.246,0-.3-.058C-.4,2.585-.405,2.5-.405,2.422v-.5q0-.184,0-.367c0-.188,0-.376,0-.563,0-.119,0-.237,0-.356V.162C-.391-.072-.19,0,0,0Z" transform="translate(67.383 50.64)" fill="#369dba"/>
      <path id="Path_16" data-name="Path 16" d="M0,0H2.663c0,1.229,0,2.453,0,3.681,0,.568,0,1.142,0,1.71q0,.745,0,1.49c0,.263,0,.527,0,.789s0,.495,0,.742c0,.091,0,.182,0,.273,0,.124,0,.247,0,.371v.111c0,.247,0,.247-.058.3H0V0Z" transform="translate(58.832 61.546)" fill="#369dba"/>
      <path id="Path_17" data-name="Path 17" d="M0,0H2.663A2.177,2.177,0,0,1,2.72.573V.685c0,.122,0,.243,0,.365q0,.127,0,.253c0,.177,0,.354,0,.533q0,.341,0,.681,0,.262,0,.522c0,.084,0,.168,0,.251q0,.175,0,.35v.2c-.007.148-.007.148-.058.2-.081.005-.163.007-.245.007H.157c-.1-.007-.1-.007-.156-.058C0,3.867-.006,3.743,0,3.619V3.5c0-.13,0-.259,0-.388,0-.09,0-.179,0-.268,0-.236,0-.472,0-.707,0-.283,0-.563,0-.85Q0,.642,0,0Z" transform="translate(39.785 60.163)" fill="#369dba"/>
    </g>
  </g>
</svg>
