<svg xmlns="http://www.w3.org/2000/svg" xmlns:xlink="http://www.w3.org/1999/xlink" width="82" height="82" viewBox="0 0 82 82">
  <defs>
    <clipPath id="clip-path">
      <rect id="Rectangle_35" data-name="Rectangle 35" width="82" height="82" transform="translate(813 3014)" fill="#fff"/>
    </clipPath>
  </defs>
  <g id="integrity" transform="translate(-813 -3014)" clip-path="url(#clip-path)">
    <g id="_2b1jAt682d5c4d7j7O9Xs7dHFQk" data-name="2b1jAt682d5c4d7j7O9Xs7dHFQk" transform="translate(811.742 3013.041)">
      <path id="Path_18" data-name="Path 18" d="M0,0,.416,0A9.9,9.9,0,0,1,2.847.226l.136.033a6.97,6.97,0,0,1,4.077,3.1A8.627,8.627,0,0,1,7.48,4.2l.077.171A8.137,8.137,0,0,1,7.271,10.4l-.052.1h.156l3.768-.008,1.824,0,1.588,0,.839,0h1.081a4.916,4.916,0,0,1,2.479.438l.128.066a2.293,2.293,0,0,1,.514.347c.131.122.131.122.268.121a1.467,1.467,0,0,0,.324-.2,4.478,4.478,0,0,1,2.862-.76l.222,0,.6,0,.629,0,1.184-.007,1.347-.008,2.772-.017-.041-.123-.187-.556-.065-.193a7.247,7.247,0,0,1,.238-5.713A7.975,7.975,0,0,1,30.8,2.348l.125-.164a5.847,5.847,0,0,1,.713-.624l.146-.118a7.584,7.584,0,0,1,4.9-1.41l.416,0a9.9,9.9,0,0,1,2.432.228l.136.033a6.97,6.97,0,0,1,4.077,3.1,8.628,8.628,0,0,1,.419.839l.077.171a8.137,8.137,0,0,1-.286,6.027l-.052.1h.156l3.768-.008,1.824,0,1.588,0,.839,0h1.081a9.034,9.034,0,0,1,1.447.09l.122.019a3.828,3.828,0,0,1,2.29,1.426c.049.07.1.142.144.213l.08.115a6.487,6.487,0,0,1,.608,3.663c0,.131,0,.263,0,.394,0,.281,0,.561,0,.844,0,.406,0,.812,0,1.221,0,.66,0,1.321,0,1.976q0,.959,0,1.918c0,.04,0,.079,0,.12,0,.2,0,.4,0,.6,0,1.64,0,3.286,0,4.927a4.539,4.539,0,0,1-.618-.169l-.106-.036-.227-.077-.363-.123-1.032-.348a14.023,14.023,0,0,0-4.366-1l-.306-.006a3.472,3.472,0,0,0-2.463,1.022c-1.064,1.19-1.006,2.584-1,4.088q0,.244,0,.487c0,.486,0,.97.03,1.457l.006.114a3.6,3.6,0,0,0,1.284,2.495,4.311,4.311,0,0,0,3.218.723,13.255,13.255,0,0,0,2.725-.7l.34-.112q.772-.255,1.541-.514l.124-.041.561-.189.195-.066L57.546,35a.7.7,0,0,1,.293-.04V56.5l.262.1a1.816,1.816,0,0,1,.194.141l.108.084.114.09.241.187.121.093c.157.12.317.235.477.349l.088.062.182.129a16.593,16.593,0,0,1,1.567,1.174,16.8,16.8,0,0,1-1.431,1.3c-.157.13-.307.267-.456.406-.241.224-.489.433-.744.639-.158.132-.31.269-.46.409-.242.225-.492.435-.749.645-.148.122-.289.25-.43.38-.233.214-.474.415-.723.613-.2.165-.387.34-.577.515-.139.125-.282.244-.429.362-.209.169-.409.344-.608.529-.242.225-.492.435-.749.645-.148.122-.289.25-.43.38-.187.171-.376.336-.571.495s-.409.344-.608.529c-.242.225-.492.435-.749.645-.148.122-.289.25-.43.38-.187.171-.376.336-.571.495s-.409.344-.608.529c-.242.225-.492.435-.749.645-.148.122-.289.25-.43.38-.187.171-.376.336-.571.495s-.409.344-.608.529c-.242.225-.492.435-.749.645-.148.122-.289.25-.43.38-.233.214-.474.415-.723.613-.2.165-.387.34-.577.515-.138.124-.28.242-.426.358-.22.178-.429.364-.634.556-.791.744-.791.744-1.127.891v.1c-.081.073-.166.142-.252.21-.211.169-.414.341-.613.524-.233.214-.474.415-.723.613-.148.123-.29.251-.432.382-.233.214-.474.415-.723.613-.148.123-.29.251-.432.382-.234.215-.475.417-.723.618-.194.16-.378.331-.561.5-.1.086-.1.086-.21.086L38.12,68.208l-9.329,0H14.5a3.247,3.247,0,0,0-1.965.268,1.7,1.7,0,0,0-.495,1.043,2.6,2.6,0,0,0,1.1,1.646l.2.169a3.768,3.768,0,0,1,.366.4,4.007,4.007,0,0,0,.458.416.839.839,0,0,1-.335.512l-.09.091-.3.3-.215.215c-.195.195-.39.39-.587.582s-.408.407-.613.613l-1.158,1.158c-.44.439-.88.875-1.321,1.315-.907.9-1.808,1.808-2.715,2.71-.127-.127-.255-.255-.382-.384a5.618,5.618,0,0,0-.5-.465,2.607,2.607,0,0,1-.38-.409c-.085-.09-.173-.177-.262-.262l-.1-.1a1.67,1.67,0,0,0-1.069-.556,1.6,1.6,0,0,0-1.08.5,1.861,1.861,0,0,0-.242,1.032l0,.157c0,.164,0,.329,0,.493,0,.111,0,.221,0,.331q-.009.645-.008,1.289-3.64.061-7.285.059H-7.551c-.091-.007-.091-.007-.144-.059-.006-.085-.008-.17-.008-.255l0-.165v-.18q0-.187,0-.374c0-.2,0-.395-.005-.592s0-.38-.006-.571v-.178a1.607,1.607,0,0,0-.182-.828l-.085-.164a1.418,1.418,0,0,0-.907-.481,1.535,1.535,0,0,0-1.1.418c-.276.253-.535.522-.8.791l-.238.243q-.261.265-.519.535l-.179.181-7.39-7.39.1-.157h.1l.052-.157h.1l.052-.157h.1l.1-.21h.1l.1-.21h.1l.052-.157a1.584,1.584,0,0,1,.21-.21h.1l.052-.157h.1l.1-.21h.1l.036-.082a2.069,2.069,0,0,1,.2-.3,1.236,1.236,0,0,0,.215-.964,1.326,1.326,0,0,0-.556-.86,4.455,4.455,0,0,0-2.133-.21l-.6,0h-.139c-.108,0-.217,0-.325,0-.091-.091-.059-.209-.059-.331v-.25q0-.215,0-.429,0-.153,0-.307c0-.278,0-.556,0-.833s0-.582,0-.87q0-.732,0-1.462c0-.566,0-1.132,0-1.693,0-.484,0-.97,0-1.452,0-.29,0-.582,0-.87,0-.272,0-.545,0-.818,0-.1,0-.2,0-.3q0-.2,0-.409v-.122c0-.272,0-.272.059-.331.083-.006.166-.008.248-.008l.161,0h.176l.366,0,.577-.005.556-.006h.173a1.727,1.727,0,0,0,1.069-.28,1.612,1.612,0,0,0,.449-1.064,1.749,1.749,0,0,0-.582-1.08l-.094-.1c-.106-.111-.214-.221-.322-.331l-.129-.132q-.2-.205-.405-.409l-.131-.132-.123-.123-.11-.11a1,1,0,0,0-.255-.2v-.1a1.781,1.781,0,0,1,.18-.16l.111-.1c.083-.072.167-.142.253-.211a.933.933,0,0,0,.406-.676q0-.177,0-.354l0-.2c0-.181,0-.363,0-.545,0-.2,0-.4,0-.592q0-.52,0-1.038c0-.515,0-1.027,0-1.546,0-.865,0-1.735,0-2.6s0-1.719,0-2.573c0-.053,0-.107,0-.162,0-.271,0-.54,0-.812,0-1.923,0-3.842,0-5.765,0-.465,0-.933,0-1.4,0-.086,0-.086,0-.175q0-2.013,0-4.02c0-.086,0-.086,0-.174q0-1.965,0-3.931c0-.055,0-.11,0-.167,0-.5,0-.991,0-1.488q0-1.934,0-3.868c0-.807,0-1.619,0-2.427,0-.512,0-1.022,0-1.536,0-.342,0-.687,0-1.027,0-.195,0-.389,0-.582a4.925,4.925,0,0,1,1.148-3.779,4.415,4.415,0,0,1,3.391-1.184l.222,0,.6,0,.624,0,1.184-.007,1.347-.008,2.772-.017L-6.95,10.4l-.187-.556L-7.2,9.653A7.247,7.247,0,0,1-6.963,3.94,7.975,7.975,0,0,1-5.915,2.42l.125-.164a5.847,5.847,0,0,1,.713-.624l.146-.118A7.584,7.584,0,0,1-.03.1ZM-3.527,3.627l-.1.082A4.1,4.1,0,0,0-4.995,6.036l-.028.137A5.227,5.227,0,0,0-4.785,8.6l.063.188q.151.448.307.9c.218.624.426,1.253.629,1.887l.044.136c.114.351.114.351.161.5q.093.289.189.577l.042.127.032.1q-2.358.059-4.722.056h-.127l-1.939,0-1.709,0h-1.492a2.486,2.486,0,0,0-1.819.376,1.5,1.5,0,0,0-.423,1.226v.167c0,.186,0,.372,0,.561,0,.134,0,.269,0,.4,0,.293,0,.587,0,.88q0,.653,0,1.305,0,1.1,0,2.2t0,2.185V22.5q0,.345,0,.692c0,1.635,0,3.265-.006,4.9,0,1.578,0,3.16-.005,4.738v.147c0,.439,0,.875,0,1.315,0,3.045-.008,6.08-.011,9.119q0,.409,0,.818c0,1.923,0,3.852,0,5.765a.632.632,0,0,0,.374-.2l.094-.094.1-.1.108-.108.354-.356.246-.246q.324-.325.645-.65t.66-.66c.432-.433.865-.865,1.295-1.3.136.135.27.271.4.409.106.127.106.127.226.115l.04.091a2.758,2.758,0,0,0,.51.582l.122.124a2.2,2.2,0,0,0,1.389.833,1.493,1.493,0,0,0,1.08-.52c.671-.755.313-3.05.318-3.307H2.755v2.306a1.631,1.631,0,0,0,.582,1.279,1.508,1.508,0,0,0,1.074.209,2.134,2.134,0,0,0,.807-.545l.122-.119q.246-.244.487-.493c.1-.1.2-.182.3-.268a3.784,3.784,0,0,0,.474-.5.871.871,0,0,1,.24-.2l.08.1q.991,1.179,2.028,2.3c.364.395.723.791,1.059,1.211a13.216,13.216,0,0,0,2.961,2.521h5.555l.052-17.453c1.714.529,1.714.529,2.416.776a13.132,13.132,0,0,0,4.313.964l.167,0a3.681,3.681,0,0,0,2.584-1.08,3.523,3.523,0,0,0,.959-2.448V33.05q0-.2,0-.4v-.14q0-.367,0-.734c0-.251,0-.5,0-.755,0-.194,0-.389,0-.582,0-.092,0-.185,0-.277a4.106,4.106,0,0,0-.365-2.028l-.055-.106a3.515,3.515,0,0,0-2.091-1.709,4.319,4.319,0,0,0-1.247-.137h-.209a14.7,14.7,0,0,0-4.533,1.111c-.466.161-.933.318-1.4.466l-.159.051-.384.122c0-.044,0-.044,0-.088q0-2.586-.007-5.173c0-.207,0-.415,0-.624v-.125c0-.666,0-1.336,0-2,0-.687,0-1.368,0-2.054,0-.422,0-.844,0-1.268q0-.487,0-.975c0-.133,0-.266,0-.4,0-.182,0-.363,0-.545l0-.158a1.624,1.624,0,0,0-.4-1.08l-.1-.082-.1-.085a1.626,1.626,0,0,0-.928-.2l-.156,0-.535-.008-.193,0c-2.238-.034-4.471-.023-6.708-.021h-1.9l-3.894,0,.064-.182.085-.241.042-.119c.123-.348.242-.7.358-1.048l.063-.189.131-.392q.1-.294.2-.587c.124-.373.248-.744.371-1.122L5.009,9c.051-.155.1-.311.153-.466L5.206,8.4a4.56,4.56,0,0,0,.235-1.447V6.82a4.214,4.214,0,0,0-.435-1.8l-.067-.143A4.3,4.3,0,0,0,2.4,2.767,7.452,7.452,0,0,0,.19,2.551H-.019A4.987,4.987,0,0,0-3.536,3.605Zm36.687,0-.1.082a4.1,4.1,0,0,0-1.363,2.327l-.028.137A5.227,5.227,0,0,0,31.9,8.6l.063.188q.151.448.307.9c.218.624.426,1.253.629,1.887l.044.136c.114.351.114.351.161.5q.093.289.189.577l.042.127.032.1q-2.358.059-4.722.056H28.52l-1.939,0-1.709,0H23.38a2.486,2.486,0,0,0-1.819.376,1.385,1.385,0,0,0-.425,1.1v.125c0,.138,0,.275,0,.413,0,.1,0,.2,0,.3,0,.268,0,.535,0,.8s0,.561,0,.844q0,.707-.006,1.415,0,.818-.007,1.635,0,.786-.008,1.572c0,.223,0,.446,0,.671,0,.263,0,.524,0,.786q0,.145,0,.289c0,.132,0,.263,0,.394v.116a1.546,1.546,0,0,0,.058.5c.286-.06.566-.13.844-.215a8.617,8.617,0,0,1,6.237.111,6.383,6.383,0,0,1,3.04,3.511,16.548,16.548,0,0,1,.314,4.769v.109a6.5,6.5,0,0,1-1.467,4.45l-.127.151a5.935,5.935,0,0,1-3.857,1.944,13.635,13.635,0,0,1-4.979-.734c-.017,4.6-.035,9.224-.052,13.941H38.188V42.047c1.012.713,1.012.713,1.384.991.323.239.645.476.975.713q.675.486,1.342.98l.624.46.249.183.125.092.5.367.249.183.624.461c.407.3.818.6,1.226.9q.5.357.985.729c.3.223.6.44.9.655s.577.418.86.629c.329.243.66.485.991.723.307.221.608.445.912.671.2.151.409.3.613.448.458.329.912.666,1.363,1l.624.46q.374.276.749.55.636.47,1.274.933l.123.09.113.082.1.072c.069.056.069.056.129.051V38.527a3.968,3.968,0,0,0-.645.131l-.156.046-.165.049a13.685,13.685,0,0,1-1.971.4l-.113.016a6.6,6.6,0,0,1-4.874-1.085q-.134-.108-.264-.221c-.089-.086-.089-.086-.2-.075l-.052-.157-.257-.214A5.616,5.616,0,0,1,45,34.785l-.031-.113a8.734,8.734,0,0,1-.2-2.154c0-.086,0-.173,0-.26,0-.18,0-.361,0-.54s0-.365,0-.545c-.011-2.065.156-3.92,1.588-5.555l.125-.142a6.333,6.333,0,0,1,4.271-1.866,12.179,12.179,0,0,1,3.983.65l.139.044.337.107q.007-2,.011-3.988,0-.928,0-1.855c0-.54,0-1.074,0-1.614,0-.285,0-.571,0-.854s0-.535,0-.807c0-.1,0-.2,0-.3a2.166,2.166,0,0,0-.347-1.52l-.117-.1-.116-.1a1.326,1.326,0,0,0-.77-.2l-.2,0-.223,0-.245,0-.692-.007-.442,0c-3.92-.04-7.861-.021-11.74-.017l.06-.17c.167-.472.331-.943.49-1.42l.063-.189.131-.392q.1-.294.2-.587c.124-.373.248-.744.371-1.122l.056-.169c.051-.155.1-.311.153-.466l.044-.134a4.56,4.56,0,0,0,.235-1.447V6.816a4.214,4.214,0,0,0-.435-1.8l-.067-.143A4.3,4.3,0,0,0,39.1,2.763a7.452,7.452,0,0,0-2.212-.216h-.209A4.987,4.987,0,0,0,33.161,3.6ZM-5.1,47.232c-.027.146-.049.289-.069.436a3.863,3.863,0,0,1-1.347,2.448,4.165,4.165,0,0,1-3.082.8,3.8,3.8,0,0,1-1.876-.86c-.129-.114-.129-.114-.337-.094a1.864,1.864,0,0,0-.21.262q-.13.132-.262.262l-.3.3-.865.865-.521.522-.506.507-.192.193-.269.269-.08.08a3.154,3.154,0,0,1-.419.36,1.665,1.665,0,0,0,.242.38,4.154,4.154,0,0,1,.755,1.667l.036.173a4.27,4.27,0,0,1-.875,3.076A4.043,4.043,0,0,1-17.928,60.2c-.166.012-.166.012-.226.083-.008.114-.013.227-.017.342l0,.112q-.005.188-.01.376l0,.131c-.035,1.41-.024,2.82-.02,4.229a1.78,1.78,0,0,0,.629.173,3.535,3.535,0,0,1,1.939.928h.1l.042.094a1.2,1.2,0,0,0,.226.289,3.967,3.967,0,0,1,.886,2.867,4.494,4.494,0,0,1-.891,2.149l-.157.1a1.178,1.178,0,0,0,.252.371l.09.092.1.1.1.106.342.344.238.239.5.5q.321.321.639.645l.491.493.235.237.33.33.1.1a1.685,1.685,0,0,0,.251.218.946.946,0,0,0,.5-.275,3.826,3.826,0,0,1,2.694-.723A4.149,4.149,0,0,1-6.154,76.06l.1.094a3.976,3.976,0,0,1,.949,2.421c.1.1.256.059.392.059h3.041l1.861,0L.2,78.537l.08-.412.027-.143A3.859,3.859,0,0,1,1.858,75.54a4.192,4.192,0,0,1,3.087-.629,4.683,4.683,0,0,1,1.9.991q.72-.711,1.436-1.426l.666-.66.645-.639.246-.244.343-.341.1-.1.093-.094.082-.081c.062-.083.062-.083.037-.193a.85.85,0,0,0-.172-.27,4.006,4.006,0,0,1-.807-2.872,4.141,4.141,0,0,1,.943-2.1l.115-.157a3.846,3.846,0,0,1,2.61-1.153l.1-.052c0-.681,0-1.363,0-2.049,0-.317,0-.634,0-.949s0-.613,0-.917q0-.175,0-.351,0-.244,0-.489v-.148a.515.515,0,0,0-.059-.392c-.1-.016-.2-.033-.306-.047a4,4,0,0,1-2.369-1.158l-.088-.086a3.983,3.983,0,0,1-.97-2.83,3.6,3.6,0,0,1,.886-2.233.531.531,0,0,0,.123-.3,3.722,3.722,0,0,0-.323-.356l-.106-.107c-.116-.117-.233-.233-.35-.35L9.5,52.514l-.509-.508q-.328-.325-.65-.655-.249-.251-.5-.5L7.6,50.609q-.167-.168-.337-.335l-.1-.1a1.705,1.705,0,0,0-.256-.221.891.891,0,0,0-.449.22,3.9,3.9,0,0,1-2.835.749A4.057,4.057,0,0,1,.977,49.385a5.28,5.28,0,0,1-.749-2.054c-.017-.151-.017-.151-.086-.211-.159-.006-.317-.008-.476-.008H-2.052l-.928,0H-4.656a.5.5,0,0,0-.443.118Zm45.911-.1c-.008.954-.016,1.913-.023,2.867,0,.443-.007.886-.011,1.331,0,.387-.006.776-.009,1.158q0,.307-.005.613c0,.193,0,.386,0,.577,0,.1,0,.208,0,.312v.354c0,.142.016.279.032.42l.015.128.011.1h-.174l-7.6,0H14.512c-.473,0-.949,0-1.42.024l-.183.009a.643.643,0,0,0-.445.279l-.075.114-.09.134a1.422,1.422,0,0,0-.277,1.022,1.661,1.661,0,0,0,.839,1.048,13.355,13.355,0,0,0,2.987.1v7.809l24.895.052v7.547a1.014,1.014,0,0,0,.428-.247l.089-.085.093-.09c.266-.253.54-.492.823-.723.147-.121.287-.247.427-.376.233-.214.474-.415.723-.613.2-.165.387-.34.577-.515.138-.124.28-.242.426-.358.22-.178.429-.364.634-.556.251-.235.509-.455.776-.671.147-.122.288-.248.429-.378.233-.214.474-.415.723-.613.148-.123.29-.251.432-.382.233-.214.474-.415.723-.613.2-.165.387-.34.577-.515.139-.125.282-.244.429-.362.209-.169.409-.344.608-.529.242-.225.492-.435.749-.645.148-.122.289-.25.43-.38.187-.171.376-.336.571-.495s.409-.344.608-.529c.242-.225.492-.435.749-.645.148-.122.289-.25.43-.38.187-.171.376-.336.571-.495s.409-.344.608-.529c.242-.225.491-.435.749-.639.2-.167.394-.343.587-.52.3-.273.6-.535.912-.8l.091-.078a1.225,1.225,0,0,1,.335-.243.768.768,0,0,0-.3-.367l-.121-.088-.13-.093-.135-.1-.415-.3L55.705,58q-.35-.254-.7-.506c-.608-.437-1.211-.875-1.813-1.321l-.624-.46-.249-.183-.125-.092c-1.368-1.012-1.368-1.012-1.494-1.1l-.249-.183-.624-.461c-.4-.3-.807-.6-1.216-.891-.535-.386-1.064-.776-1.6-1.169-.438-.324-.875-.645-1.321-.964-.54-.383-1.069-.776-1.593-1.174-.251-.189-.505-.373-.76-.556-.334-.241-.666-.483-1-.728l-.125-.092q-.306-.226-.608-.454l-.116-.088-.215-.164a2.71,2.71,0,0,0-.475-.3Z" transform="translate(22.065 1.3)" fill="#fff"/>
      <path id="Path_19" data-name="Path 19" d="M0,0A10.338,10.338,0,0,1,5.4,1.263l.1.052A11.537,11.537,0,0,1,6.7,2.107l.124.09a5.352,5.352,0,0,1,.676.6,3.535,3.535,0,0,0,.28.252,7.9,7.9,0,0,1,1.122,1.31l.1.131a9.645,9.645,0,0,1,1.85,5.451v.123a10.42,10.42,0,0,1-2,6.6c-.041.058-.082.115-.122.173L8.62,17l-.1.142-.083.1h-.1l-.044.094a2.688,2.688,0,0,1-.676.749c-.081.07-.16.143-.237.216A10.125,10.125,0,0,1,.4,20.926H.283a9.252,9.252,0,0,1-1.913-.173l-.131-.027a10.227,10.227,0,0,1-4.916-2.568,2.58,2.58,0,0,0-.278-.238,3.68,3.68,0,0,1-.491-.519l-.118-.134a10.385,10.385,0,0,1-2.505-7.285A10.651,10.651,0,0,1-8.81,5.526l.052-.1a11.957,11.957,0,0,1,.791-1.216l.091-.125a5.046,5.046,0,0,1,.556-.634,3.39,3.39,0,0,0,.25-.277A10.1,10.1,0,0,1-.728.075L-.562.054C-.374.035-.187.026,0,.018ZM-1.567,2.835l-.136.039A7.972,7.972,0,0,0-6.488,6.653a9.5,9.5,0,0,0-.734,1.8l-.03.1a7.368,7.368,0,0,0-.2,1.944v.107a6.778,6.778,0,0,0,.173,1.656l.03.123a7.807,7.807,0,0,0,1.7,3.234l.136.157a7.774,7.774,0,0,0,5.1,2.568,8.178,8.178,0,0,0,4.3-.839l.1-.054a7.929,7.929,0,0,0,3.863-4.623,8.027,8.027,0,0,0-.089-4.963L7.806,7.7A8.216,8.216,0,0,0,6.554,5.512l-.113-.151-.1-.111h-.1L6.2,5.159C5.554,3.974,3.694,3.2,2.467,2.842a7.811,7.811,0,0,0-4.036,0Z" transform="translate(19.234 53.72)" fill="#fff"/>
      <path id="Path_20" data-name="Path 20" d="M0,0A5.282,5.282,0,0,1,1.012,1.295l.091.162a5.318,5.318,0,0,1,.36,3.931,5.524,5.524,0,0,1-.293.728L1.1,6.26A5.121,5.121,0,0,1-1.889,8.812a5.33,5.33,0,0,1-4.093-.328,5.265,5.265,0,0,1-2.61-3.213A5.388,5.388,0,0,1-8,1.084c.145-.219.307-.425.472-.629L-7.4.288A5.294,5.294,0,0,1-.014,0ZM-5.608,2.18a2.9,2.9,0,0,0-.556,2.154A2.716,2.716,0,0,0-5.047,6.048a2.87,2.87,0,0,0,2.117.4A2.915,2.915,0,0,0-1.263,5.235a3,3,0,0,0,.311-2,1.4,1.4,0,0,0-.075-.2L-1.1,2.862A2.771,2.771,0,0,0-2.531,1.395a2.718,2.718,0,0,0-3.076.791Z" transform="translate(23.218 60.324)" fill="#fff"/>
      <path id="Path_21" data-name="Path 21" d="M0,0A3.945,3.945,0,0,1,2.809,1.059,4.033,4.033,0,0,1,4.067,3.826a3.954,3.954,0,0,1-1,2.736h-.1l-.039.093A3.159,3.159,0,0,1,1.1,7.739a4.022,4.022,0,0,1-3-.445,4.144,4.144,0,0,1-.419-.314l-.129-.106A3.858,3.858,0,0,1-3.737,4.619l-.036-.18A4.067,4.067,0,0,1-2.945,1.5q.1-.118.206-.233l.09-.1A3.91,3.91,0,0,1,.008,0ZM-.88,3.066a1.352,1.352,0,0,0-.314,1.022,1.357,1.357,0,0,0,.459.865A1.45,1.45,0,0,0,.4,5.244a1.456,1.456,0,0,0,.912-.629A1.483,1.483,0,0,0,1.4,3.478a1.471,1.471,0,0,0-.786-.807,1.372,1.372,0,0,0-1.494.4Z" transform="translate(23.427 27.515)" fill="#fff"/>
      <path id="Path_22" data-name="Path 22" d="M0,0A4.062,4.062,0,0,1,1.4,2.793,4.264,4.264,0,0,1,.487,5.571l-.068.071h-.1l-.039.093A3.159,3.159,0,0,1-1.554,6.82a4.022,4.022,0,0,1-3-.445,4.144,4.144,0,0,1-.419-.314L-5.1,5.954A3.858,3.858,0,0,1-6.389,3.7l-.036-.18A4.067,4.067,0,0,1-5.6.58q.1-.118.206-.233l.09-.1A3.918,3.918,0,0,1-.007,0ZM-3.532,2.149a1.352,1.352,0,0,0-.314,1.022,1.357,1.357,0,0,0,.459.865,1.45,1.45,0,0,0,1.132.291A1.456,1.456,0,0,0-1.344,3.7a1.483,1.483,0,0,0,.092-1.137,1.471,1.471,0,0,0-.786-.807,1.372,1.372,0,0,0-1.494.4Z" transform="translate(15.618 28.406)" fill="#fff"/>
      <path id="Path_23" data-name="Path 23" d="M0,0A3.9,3.9,0,0,1,1.363,2.448a4.229,4.229,0,0,1-.943,3.2h-.1l-.039.093A3.159,3.159,0,0,1-1.554,6.822a4.022,4.022,0,0,1-3-.445,4.144,4.144,0,0,1-.419-.314L-5.1,5.956A3.858,3.858,0,0,1-6.389,3.7l-.036-.18A4.067,4.067,0,0,1-5.6.582q.1-.118.206-.233l.09-.1A3.918,3.918,0,0,1-.007,0ZM-3.532,2.149a1.352,1.352,0,0,0-.314,1.022,1.357,1.357,0,0,0,.459.865,1.45,1.45,0,0,0,1.132.291A1.456,1.456,0,0,0-1.344,3.7a1.483,1.483,0,0,0,.092-1.137,1.471,1.471,0,0,0-.786-.807,1.372,1.372,0,0,0-1.494.4Z" transform="translate(36.582 28.406)" fill="#fff"/>
    </g>
  </g>
</svg>
