<svg xmlns="http://www.w3.org/2000/svg" xmlns:xlink="http://www.w3.org/1999/xlink" width="82" height="82" viewBox="0 0 82 82">
  <defs>
    <clipPath id="clip-path">
      <rect id="Rectangle_33" data-name="Rectangle 33" width="82" height="82" transform="translate(130 3014)" fill="#eee"/>
    </clipPath>
  </defs>
  <g id="Mask_Group_3" data-name="Mask Group 3" transform="translate(-130 -3014)" clip-path="url(#clip-path)">
    <g id="_2b1ihUbxQrQQJGfU7kFjaVuPDJU" data-name="2b1ihUbxQrQQJGfU7kFjaVuPDJU" transform="translate(130.033 3014.037)">
      <path id="Path_2" data-name="Path 2" d="M0,0,.17.015a30.2,30.2,0,0,1,4.8.855l.165.043A24.9,24.9,0,0,1,9.323,2.459l.159.073c.789.364,1.552.768,2.3,1.209l.147.086A24.94,24.94,0,0,1,14.8,5.789l.181.14c.319.247.625.5.922.773.128.115.261.222.4.328a8.667,8.667,0,0,1,.722.671,6.116,6.116,0,0,0,.449.421,6.231,6.231,0,0,1,.558.563c.126.14.255.277.39.408a7.221,7.221,0,0,1,.517.594c.109.133.222.258.339.384a11.35,11.35,0,0,1,.773.983c.078.106.158.21.238.315.317.416.62.84.9,1.275l.136.208a27.31,27.31,0,0,1,4.5,14.493v.2c0,.215,0,.431,0,.645,0,.037,0,.073,0,.111a24.669,24.669,0,0,1-.166,3.334l-.014.1a27.023,27.023,0,0,1-3.467,10.5c-.095.155-.182.31-.267.471-.154.285-.325.553-.5.825l-.065.1a27.391,27.391,0,0,1-1.762,2.428l-.188.234c-.232.289-.476.563-.727.835-.131.139-.258.28-.382.426-.252.29-.527.558-.8.83l-.278.278c-.3.3-.6.589-.922.86l-.172.15c-.411.356-.83.7-1.26,1.029l-.145.113a29.375,29.375,0,0,1-3.442,2.243l-.149.083A27.562,27.562,0,0,1,4,55.882l-.157.037a30.835,30.835,0,0,1-4.6.681l-.184.015c-.488.036-.973.049-1.465.049h-.123a27.883,27.883,0,0,1-8.5-1.347l-.171-.054a25.706,25.706,0,0,1-2.7-1.019l-.172-.076a27.549,27.549,0,0,1-4.44-2.484l-.112-.077q-.76-.524-1.475-1.1l-.143-.114c-.271-.22-.538-.445-.8-.671l-.089-.076c-.543-.471-1.06-.963-1.567-1.47L-23,47.885a10.236,10.236,0,0,1-.9-.994c-.1-.129-.213-.25-.325-.371-.242-.266-.46-.548-.676-.835l-.219-.288a24.749,24.749,0,0,1-2.658-4.24c-.07-.143-.141-.286-.212-.428a28.106,28.106,0,0,1-2.561-8.245l-.026-.164c-.112-.727-.179-1.46-.23-2.192L-30.814,30a28.879,28.879,0,0,1,3.185-14.9l.053-.1a21.939,21.939,0,0,1,1.47-2.463c.066-.1.131-.194.2-.291.335-.5.7-.973,1.07-1.444l.193-.245c.442-.558.917-1.1,1.4-1.618l.232-.252A14.089,14.089,0,0,1-21.9,7.562c.11-.1.213-.2.316-.3a4.785,4.785,0,0,1,.506-.455h.1V6.7a2.709,2.709,0,0,1,.237-.2l.157-.125.085-.067.25-.2c.447-.357.906-.7,1.373-1.024l.241-.173a26.326,26.326,0,0,1,6.555-3.375l.328-.116A27.693,27.693,0,0,1-4.478-.062l.117-.009A26.843,26.843,0,0,1,.028-.01ZM-17.208,6.658l-.109.077c-.522.369-1.029.753-1.531,1.152l-.15.119c-.287.231-.563.473-.835.722-.074.068-.149.135-.226.2-.34.289-.65.6-.968.922l-.3.294a11.1,11.1,0,0,0-.917,1c-.093.117-.191.228-.292.339a22.986,22.986,0,0,0-2.975,4.389l-.071.132a23.063,23.063,0,0,0-1.055,2.223l-.059.144c-1.823,4.456-2.366,9.321-1.321,15.569l.039.179a24.327,24.327,0,0,0,2.4,6.4q.072.129.142.26a24.125,24.125,0,0,0,1.413,2.269l.086.125c.35.512.722,1,1.122,1.475.107.129.21.259.315.388.2.245.412.479.625.712a1.607,1.607,0,0,1,.208.272h.1l.036.087a1.706,1.706,0,0,0,.308.374l.144.145.075.075.227.228.144.144.133.133c.1.107.1.107.211.1l.051.154c.08.073.164.141.25.208.2.162.4.328.589.506.3.278.625.527.953.773l.112.084a30.338,30.338,0,0,0,2.55,1.711l.122.073c.548.324,1.1.625,1.67.9l.153.074A25.859,25.859,0,0,0-4,54.331l.195.01A25.888,25.888,0,0,0,7.72,52.282l.168-.075a26.643,26.643,0,0,0,4.491-2.515l.3-.206c.435-.3.845-.63,1.255-.968.128-.105.258-.209.387-.313.275-.226.538-.465.8-.707l.283-.263.2-.188.095-.088a9.615,9.615,0,0,0,.809-.819c.113-.131.228-.255.352-.374a6.848,6.848,0,0,0,.522-.6c.1-.129.213-.255.321-.381a24.261,24.261,0,0,0,2.981-4.538l.071-.134a26,26,0,0,0,2.694-9.065l.018-.153c.517-4.609-.368-9.27-4.112-16.9l-.093-.144c-.278-.424-.574-.835-.881-1.239l-.066-.088c-.321-.428-.661-.84-1.009-1.244l-.1-.111c-.452-.522-.927-1.019-1.413-1.511L15.534,9.4c-.288-.289-.579-.568-.891-.835l-.155-.135c-.447-.383-.912-.743-1.383-1.1L13,7.251a25.912,25.912,0,0,0-3.375-2.12l-.138-.074A25.72,25.72,0,0,0,3.646,2.875l-.14-.035A25.244,25.244,0,0,0-.607,2.21L-.737,2.2c-5.275-.435-10.7.953-16.439,4.466Z" transform="translate(43.48 25.299)" fill="#eee"/>
      <path id="Path_3" data-name="Path 3" d="M0,0,.173.024c.337.049.671.11,1,.181L1.35.241a26.28,26.28,0,0,1,4.486,1.4l.133.054A16.017,16.017,0,0,1,7.5,2.441l.376.2a21.147,21.147,0,0,1,3.554,2.407c.126.1.254.205.381.307a20.563,20.563,0,0,1,1.552,1.449l.267.265a11.724,11.724,0,0,1,.963,1.075l.237.279A20.971,20.971,0,0,1,16.469,10.7l.18.283c2.494,3.943,3.58,8.553,2.935,17.515-.071.308-.148.615-.23.917l-.038.141c-.085.313-.175.625-.27.937l-.039.129a22.442,22.442,0,0,1-4.947,8.553c-.1.112-.2.224-.3.339-.206.237-.427.459-.65.681l-.118.118c-.244.243-.494.474-.758.7l-.172.15a26.531,26.531,0,0,1-4.281,2.975l-.125.071c-4.046,2.274-8.86,3.027-15.006,2.438l-.168-.029a23.989,23.989,0,0,1-5.736-1.762l-.122-.054a19.267,19.267,0,0,1-3.682-2.136l-.283-.209a24.179,24.179,0,0,1-2.059-1.7l-.227-.206a14.41,14.41,0,0,1-1.321-1.332c-.108-.124-.22-.244-.331-.365-.271-.3-.517-.609-.763-.932-.062-.08-.125-.159-.188-.238a23.078,23.078,0,0,1-1.5-2.2l-.057-.09a22.068,22.068,0,0,1-2.832-7.426l-.028-.147c-.151-.814-.253-1.639-.331-2.463L-27,25.221c-.032-.354-.047-.707-.049-1.06V24a25.23,25.23,0,0,1,.165-3.605l.015-.11a26.59,26.59,0,0,1,.7-3.375l.044-.162a21.054,21.054,0,0,1,2.566-5.736l.085-.135a22.779,22.779,0,0,1,2.7-3.513c.112-.12.22-.242.326-.368a4.048,4.048,0,0,1,.459-.44c.145-.129.28-.267.415-.405a7.726,7.726,0,0,1,.732-.656c.125-.1.245-.207.366-.315A22.639,22.639,0,0,1-6.54.006l.195-.028a23.1,23.1,0,0,1,6.3.079ZM-6.76,2.253l-.1.016a20.01,20.01,0,0,0-5.326,1.623l-.141.065A21.087,21.087,0,0,0-17.6,7.425l-.11.1c-.333.3-.65.6-.968.922l-.144.142a12.178,12.178,0,0,0-.876.988l-.135.161A22.422,22.422,0,0,0-21.906,12.7l-.1.166a20.324,20.324,0,0,0-2.525,7.375l-.023.151a20.709,20.709,0,0,0-.182,2.97v.173a21.381,21.381,0,0,0,1.91,8.706l.059.134a19.853,19.853,0,0,0,3.58,5.326c.073.082.141.167.208.254l.1.114h.1l.035.086a1.762,1.762,0,0,0,.323.388l.138.138c.1.116.1.116.221.1v.1a1.51,1.51,0,0,0,.2.182l.11.1a.452.452,0,0,0,.258.131v.1a2.081,2.081,0,0,0,.234.2l.157.125.085.068c.088.07.175.142.262.214A18.449,18.449,0,0,0-15.2,41.144l.118.078C-11.011,43.9-6.064,45.063.85,44.269a18.82,18.82,0,0,0,5.326-1.854c.165-.093.334-.175.5-.258a16.936,16.936,0,0,0,3.037-1.987l.141-.113c.142-.115.283-.231.423-.348l.08-.067a18.922,18.922,0,0,0,2.069-1.982l.237-.259a19.785,19.785,0,0,0,1.854-2.468c.06-.093.121-.185.182-.278,2.525-3.867,3.575-8.757,2.76-15.774a20.906,20.906,0,0,0-2.253-5.941q-.091-.163-.181-.326c-.247-.444-.522-.866-.809-1.28l-.064-.092a18.259,18.259,0,0,0-3.549-3.954c-.128-.1-.246-.21-.366-.321A14.729,14.729,0,0,0,8.485,5.651l-.1-.066a17.674,17.674,0,0,0-1.572-.942l-.372-.2A19.691,19.691,0,0,0,1.219,2.53L1.068,2.5C.676,2.41.284,2.337-.11,2.274L-.3,2.243a20.827,20.827,0,0,0-6.4.031Z" transform="translate(44.402 30.216)" fill="#eee"/>
      <path id="Path_4" data-name="Path 4" d="M0,0C.213.18.414.37.615.563l.1.089A4.952,4.952,0,0,1,2.2,3.894a12.321,12.321,0,0,1-.886,4.225l-.086.263-.207.635h.1l2.381-.005,1.152,0,1,0h.533a5.287,5.287,0,0,1,3.841,1.035l.1.079a4.233,4.233,0,0,1,1.434,2.791,9.6,9.6,0,0,1-.343,2.668l-.04.193q-.053.257-.107.512l-.066.317c-.077.368-.153.737-.23,1.1-.259,1.239-.517,2.479-.768,3.718l-.031.15c-.1.493-.2.988-.3,1.48q-.062.307-.124.615c-.019.1-.038.19-.057.285-.337,1.705-.337,1.705-.656,2.264l-.059.107a4.215,4.215,0,0,1-1.265,1.388l-.117.082a6.239,6.239,0,0,1-3.6.7l-.563,0-.978,0c-.512,0-1.029,0-1.542,0H.065l-1.5,0h-.138c-.743,0-1.48,0-2.223-.009q-1.145-.006-2.289,0c-.47,0-.937,0-1.408-.006-.321,0-.64,0-.963,0-.185,0-.371,0-.558,0s-.4,0-.6,0l-.177-.005a1.085,1.085,0,0,0-.447.08,2.6,2.6,0,0,0-.358.615,3.317,3.317,0,0,1-.221.294l-.1.127-.087.091h-.1v.1a3.451,3.451,0,0,1-2.632.83,3.037,3.037,0,0,1-1.926-.983l-.109-.1a4.337,4.337,0,0,1-.973-3.134v-.2q0-.28,0-.558,0-.3,0-.6,0-.591,0-1.183c0-.32,0-.64,0-.963,0-.906,0-1.818,0-2.725,0-.049,0-.1,0-.149s0-.1,0-.149q0-1.191,0-2.381c0-.814,0-1.634,0-2.448,0-.458,0-.917,0-1.373q0-.585,0-1.168c0-.2,0-.4,0-.594s0-.365,0-.548q0-.144,0-.289a4.173,4.173,0,0,1,1.081-3.027,3.486,3.486,0,0,1,2.545-.947,3.347,3.347,0,0,1,2.269.978,5.12,5.12,0,0,1,.676.994c.235.006.47.01.707.013l.2.005.194,0,.179,0a.323.323,0,0,0,.266-.1,2.556,2.556,0,0,0,.288-.563l.055-.132c.059-.143.118-.286.176-.43l.124-.3.252-.609c.154-.375.311-.748.467-1.127q.117-.28.233-.558l.093-.223.1-.228.2-.49L-6.6,4.17c.13-.311.259-.62.389-.932.083-.2.165-.4.247-.594q.141-.339.287-.676l.054-.124A4.513,4.513,0,0,1-4.762.43l.116-.122A3.673,3.673,0,0,1,0,.02ZM-2.868,1.741l-.09.05a1.48,1.48,0,0,0-.464.63l-.054.11c-.162.333-.306.671-.445,1.014-.076.189-.153.377-.23.568l-.049.121c-.2.478-.395.953-.594,1.429-.078.185-.156.371-.234.558l-.06.143q-.231.552-.46,1.106l-.138.333-.2.483c-.968,2.346-.968,2.346-1.849,2.719a7.157,7.157,0,0,1-2.2.312v14.9l5.377.01h1.229l2.207,0,2.264,0,1.4,0H4.049c.2,0,.4,0,.6,0l.175,0a2.441,2.441,0,0,0,1.69-.65,4.645,4.645,0,0,0,.809-2.32l.049-.241.1-.51c.054-.269.11-.538.164-.809l.056-.273.028-.137c.028-.137.056-.273.083-.41.143-.707.289-1.408.435-2.11.073-.352.145-.7.218-1.055s.143-.691.215-1.035c.076-.365.152-.732.227-1.1.041-.2.081-.395.123-.594s.077-.369.115-.553q.031-.15.063-.3a2.527,2.527,0,0,0-.223-1.951,1.973,1.973,0,0,0-1.234-.891,5.8,5.8,0,0,0-1.106-.06H5.872l-.825,0L3,11.245l-1.593,0H.586l-.511,0H-.16c-.881,0-.881,0-1.2-.261l-.069-.09L-1.5,10.8a1.327,1.327,0,0,1-.165-.963,5.265,5.265,0,0,1,.218-.666l.1-.29.074-.2c.154-.426.3-.855.436-1.285l.04-.122A5.987,5.987,0,0,0-.474,2.9,3.286,3.286,0,0,0-1.627,1.638a1.69,1.69,0,0,0-1.27.1ZM-14.237,9.833a2.935,2.935,0,0,0-.25,1.552v.2c0,.183,0,.365,0,.548s0,.4,0,.594c0,.387,0,.773,0,1.157,0,.314,0,.63,0,.942v.136c0,.091,0,.182,0,.273,0,.85,0,1.705,0,2.556,0,.732,0,1.46,0,2.192q0,1.275,0,2.55,0,.136,0,.272c0,.045,0,.089,0,.135,0,.313,0,.625,0,.942,0,.383,0,.763,0,1.147q0,.293,0,.584,0,.317,0,.635v.185A2.5,2.5,0,0,0-14,28.1a1.148,1.148,0,0,0,.768.256,1.379,1.379,0,0,0,.86-.609,1.828,1.828,0,0,0,.262-1.019v-.374c0-.07,0-.139,0-.208,0-.191,0-.381,0-.574s0-.411,0-.615q0-.744,0-1.49,0-.35,0-.7c0-.778,0-1.557-.005-2.33l0-.6v-.152c0-.814,0-1.623,0-2.438,0-.835,0-1.67,0-2.5,0-.468,0-.937,0-1.4,0-.4,0-.8,0-1.193q0-.3,0-.609,0-.28,0-.558c0-.1,0-.2,0-.3a1.468,1.468,0,0,0-.3-1.04,1.183,1.183,0,0,0-.237-.177l-.131-.093a1.132,1.132,0,0,0-1.424.458Z" transform="translate(44.607 37.539)" fill="#eee"/>
      <path id="Path_5" data-name="Path 5" d="M0,0A1.375,1.375,0,0,1,.256.256L.332.345a1.742,1.742,0,0,1,.2.46l.035.1q.057.172.113.345L.763,1.5c.246.748.484,1.5.722,2.248.184.584.373,1.163.568,1.741.113.337.225.676.332,1.014l.039.122a.954.954,0,0,1,.086.387h.108L5.214,7,6.469,7l1.1,0,.579,0h.548l.295,0a1.4,1.4,0,0,1,1.152.429,1.253,1.253,0,0,1,.237.932,2.293,2.293,0,0,1-1.116,1.2c-.148.1-.294.207-.44.311l-.089.063c-.363.26-.722.522-1.086.784l-.579.418-.23.166-.461.333-.115.083-.229.165c-.2.145-.4.29-.6.437l-.126.092-.239.176-.109.079-.1.07a2.01,2.01,0,0,1-.355.164c.134.522.287,1.035.457,1.547l.073.22.153.462q.12.36.238.722l.04.121.079.242.158.478.15.455.1.3q.162.492.322.983l.092.28q.063.191.124.381l.036.108a1.506,1.506,0,0,1,.034.912,1.345,1.345,0,0,1-.656.686,1.405,1.405,0,0,1-1.193-.221c-.146-.1-.288-.2-.429-.3l-.119-.087-.374-.275-.249-.183-.493-.363-.615-.453c-.2-.151-.411-.3-.615-.453-.48-.354-.963-.707-1.444-1.055-.144-.1-.285-.208-.426-.316l-.1-.074q-.091-.069-.18-.139a.869.869,0,0,0-.23-.139,1.305,1.305,0,0,0-.553.327c-.257.2-.517.4-.789.584-.316.221-.63.446-.937.676-.43.318-.86.635-1.3.947l-.46.332-.229.165q-.3.216-.6.435l-.125.092-.235.174a1.529,1.529,0,0,1-1.183.37,1.217,1.217,0,0,1-.615-.41l-.087-.1a1.255,1.255,0,0,1-.118-.978c.075-.282.171-.558.263-.835q.1-.29.193-.579l.1-.309c.181-.543.355-1.091.527-1.639.267-.84.538-1.675.819-2.509l.057-.168.049-.143a.494.494,0,0,0,.034-.271l-.107-.036a2.51,2.51,0,0,1-.492-.313l-.206-.154-.109-.081c-.186-.138-.374-.273-.563-.409l-.235-.17-.465-.335c-.4-.285-.789-.574-1.183-.86-.307-.227-.615-.45-.927-.671-.293-.206-.584-.413-.876-.625l-.1-.073a1.484,1.484,0,0,1-.579-.732,1.323,1.323,0,0,1,.2-1.024A1.321,1.321,0,0,1-10.412,7H-8.69l1.106,0,1.26,0,2.586.005.031-.115.041-.152.041-.151c.056-.2.118-.4.181-.6l.039-.125.127-.4.045-.14c.215-.676.436-1.352.666-2.023.135-.4.263-.8.386-1.2l.089-.288q.086-.279.17-.558a2.1,2.1,0,0,1,.8-1.311A1.291,1.291,0,0,1,0-.007ZM-.666,4.763c-.109.284-.207.568-.3.86l-.082.262-.043.137q-.111.353-.224.707-.139.437-.275.876c-.048.156-.1.31-.147.466l-.05.164a1.538,1.538,0,0,1-.522.83,1.918,1.918,0,0,1-.84.176l-.124,0-.4,0-.281,0-.737.005-.753.006-1.475.011a3.876,3.876,0,0,0,.469.42l.119.088.125.091.132.1c.3.222.609.441.917.661.37.264.737.527,1.106.8l.165.121a1.217,1.217,0,0,1,.574.763,1.757,1.757,0,0,1-.092.85l-.042.13c-.047.147-.1.294-.145.441l-.113.344c-.144.438-.289.876-.436,1.316-.063.188-.125.376-.187.563l-.059.175-.053.161-.047.141c-.039.125-.039.125.024.272.3-.2.594-.4.886-.609l.119-.086c.3-.218.6-.44.891-.661.328-.247.656-.492.994-.727l.108-.077a1.475,1.475,0,0,1,1.152-.291,3.448,3.448,0,0,1,1.1.707c.345.27.707.517,1.065.773q.279.2.553.4l.133.1.26.195.12.09.107.08a.531.531,0,0,0,.249.115,8.8,8.8,0,0,0-.281-1.019l-.052-.159-.166-.5q-.188-.568-.373-1.137c-.033-.1-.066-.2-.1-.3q-.068-.206-.134-.413l-.041-.12A1.38,1.38,0,0,1,2.183,12a3.258,3.258,0,0,1,.83-.717l.1-.072c.18-.128.36-.255.543-.382.349-.245.691-.495,1.04-.748l.337-.243.21-.152.1-.07a1.209,1.209,0,0,0,.337-.333H5.52c-.494,0-.988,0-1.485-.009l-.763,0-.737,0h-.28l-.394,0H1.745a1.208,1.208,0,0,1-.876-.374A2.357,2.357,0,0,1,.589,8.3L.544,8.177c-.213-.6-.4-1.219-.6-1.828L-.231,5.8l-.108-.341L-.388,5.3l-.043-.136c-.044-.13-.093-.257-.145-.384h-.1Z" transform="translate(69.701 9.014)" fill="#eee"/>
      <path id="Path_6" data-name="Path 6" d="M0,0A3.727,3.727,0,0,1,.732,1.629c.064.208.129.416.194.625L.97,2.4c.221.707.451,1.413.681,2.12q.072.223.144.446l.138.427c.032.1.064.2.095.294.111.342.223.681.34,1.024a.508.508,0,0,1,.037.222h.107l2.581-.005,1.25,0,1.086,0H8.839a1.447,1.447,0,0,1,1.122.333,1.219,1.219,0,0,1,.311.958,1.531,1.531,0,0,1-.727.988l-.271.192L9.1,9.514q-.224.161-.45.321l-.435.31-.089.063c-.363.26-.722.522-1.086.784-.231.167-.462.334-.7.5q-.293.211-.584.424c-.446.323-.891.64-1.347.953a8.717,8.717,0,0,0,.332,1.157q.1.307.207.615l.044.131c.259.773.509,1.547.758,2.32.062.194.125.387.188.579q.119.365.236.727.044.138.09.275.062.191.123.382l.037.112a1.181,1.181,0,0,1-.788,1.588A1.3,1.3,0,0,1,4.6,20.511c-.289-.2-.568-.416-.85-.63-.24-.183-.484-.362-.727-.538q-.472-.34-.942-.686l-.122-.09L1.465,18.2C.81,17.717.81,17.717.149,17.245c-.138-.1-.273-.2-.406-.3l-.15-.117-.13-.1c-.119-.076-.119-.076-.246-.036a4.53,4.53,0,0,0-.473.32l-.206.153-.11.082q-.3.221-.594.44l-.124.092c-.266.2-.533.388-.8.579-.517.363-1.024.737-1.531,1.116-.431.32-.86.64-1.3.942l-.1.071a1.408,1.408,0,0,1-1.086.275,1.239,1.239,0,0,1-.758-.681,1.951,1.951,0,0,1,.125-1.285l.061-.192c.058-.18.116-.36.175-.538l.164-.507c.328-1.014.661-2.033,1-3.042q.086-.256.171-.512l.072-.215c.038-.111.074-.223.111-.334l.035-.1a.714.714,0,0,0,.021-.527.481.481,0,0,0-.163-.136l-.1-.071-.114-.075-.24-.164-.125-.085c-.2-.133-.387-.272-.579-.411l-.115-.083c-.327-.237-.65-.476-.978-.717-.292-.216-.589-.428-.886-.64-.25-.178-.5-.358-.748-.538q-.3-.22-.609-.436l-.125-.089-.236-.165a1.827,1.827,0,0,1-.768-.953,1.244,1.244,0,0,1,.2-.871,1.3,1.3,0,0,1,.86-.475c.179,0,.357-.005.538,0h.206l.558,0h.584l1.1,0,1.255,0,2.581.008L-3.8,6.8l.041-.166.041-.164c.058-.224.126-.444.2-.666l.044-.138.14-.437.1-.305c.188-.589.38-1.178.579-1.762.171-.509.336-1.019.5-1.531l.177-.548L-1.932.91-1.88.746-1.834.6a1.342,1.342,0,0,1,.543-.722A1.226,1.226,0,0,1,.01,0ZM-.773,4.671c-.242.656-.449,1.316-.656,1.982-.156.5-.312.988-.483,1.48l-.037.107a1.276,1.276,0,0,1-.589.794,3.2,3.2,0,0,1-1.244.125l-.281,0-.732,0-.753.005c-.49,0-.978.006-1.47.008a4.339,4.339,0,0,0,.522.461l.164.121q.37.27.743.538c.373.269.743.543,1.116.814q.205.152.415.3a1.454,1.454,0,0,1,.676.9,4.635,4.635,0,0,1-.362,1.465l-.06.183q-.094.287-.189.574-.064.194-.127.387l-.234.712-.051.156q-.047.141-.1.281l-.044.123-.039.1a.51.51,0,0,0,.03.3q.953-.666,1.88-1.357c1.506-1.116,1.506-1.116,1.92-1.122l.167,0a2.268,2.268,0,0,1,1.04.553l.259.193.132.1c.206.154.413.307.62.46l.12.089c.328.242.656.481.988.717l.109.078.1.072c.071.052.14.1.209.159s.08.068.185.058a13.227,13.227,0,0,0-.4-1.362q-.1-.3-.2-.609L2.526,14.5c-.133-.4-.263-.794-.39-1.193l-.059-.182a1.6,1.6,0,0,1-.072-1.065,2.173,2.173,0,0,1,.768-.789l.249-.176L3.151,11c.2-.139.392-.281.589-.422l.228-.165.115-.083.366-.264.124-.09.233-.167.212-.153L5.241,9.5l.114-.082.1-.074.075-.066v-.1H5.376q-.73,0-1.46-.007l-.753,0c-.242,0-.483,0-.727,0H2.161c-.988,0-.988,0-1.342-.292A2.9,2.9,0,0,1,.3,7.669l-.074-.23q-.1-.3-.192-.6c-.065-.2-.131-.409-.2-.615-.074-.23-.147-.46-.22-.691l-.034-.106-.09-.283Q-.584,4.9-.664,4.666h-.1Z" transform="translate(13.572 9.116)" fill="#eee"/>
      <path id="Path_7" data-name="Path 7" d="M0,0A1.556,1.556,0,0,1,.814.881c.047.131.09.262.131.394L1,1.431q.074.228.146.457l.109.343c.128.4.255.8.382,1.2q.237.749.478,1.5l.061.19.12.372c.109.335.216.671.324,1l.06.189.138.429a2.253,2.253,0,0,0,.533.056H3.89l.415,0,.656,0L6.83,7.157l1.035,0,.548,0,.609,0,.181,0a1.855,1.855,0,0,1,1.106.284,1.3,1.3,0,0,1,.394.86,1.369,1.369,0,0,1-.553.994c-.171.135-.346.264-.522.391l-.089.065c-.208.151-.418.3-.63.448-.447.316-.891.64-1.332.963q-.4.3-.809.584c-.206.146-.41.294-.615.442-.319.231-.64.462-.963.686l-.158.112c-.123.077-.123.077-.226.077a7.029,7.029,0,0,0,.32,1.178c.069.2.136.4.2.6l.045.134c.365,1.081.717,2.171,1.07,3.257l.045.138q.123.379.243.758l.056.173a1.41,1.41,0,0,1-.037,1.183,1.042,1.042,0,0,1-.6.49,1.433,1.433,0,0,1-1.2-.26c-.122-.088-.242-.178-.362-.268l-.26-.194L4.2,20.151c-.131-.1-.264-.2-.4-.291l-.13-.094-.353-.255c-.4-.29-.8-.584-1.2-.876C1.692,18.319,1.26,18,.83,17.7l-.377-.273-.129-.093L.08,17.154l-.111-.08L-.129,17A.752.752,0,0,0-.313,16.9l-.282.185-.158.1c-.163.11-.32.227-.476.346-.7.527-1.408,1.035-2.115,1.547-.437.315-.876.63-1.306.953l-.361.265-.221.163-.292.215-.164.121a1.467,1.467,0,0,1-1.024.2,1.173,1.173,0,0,1-.717-.6,1.916,1.916,0,0,1,.1-1.4l.046-.144q.075-.231.151-.462l.1-.325q.364-1.122.743-2.243c.165-.493.329-.983.491-1.48q.041-.126.083-.252.058-.174.115-.349l.035-.1a1.151,1.151,0,0,0,.078-.527,2.1,2.1,0,0,0-.3-.23l-.2-.135-.107-.072c-.189-.129-.373-.264-.558-.4l-.236-.171L-7,12.011l-.348-.251c-.4-.287-.794-.579-1.193-.871-.277-.2-.553-.408-.835-.609l-.085-.06-.385-.273-.367-.262-.114-.081a2.323,2.323,0,0,1-.994-1.111,1.249,1.249,0,0,1,.269-.932,1.259,1.259,0,0,1,.9-.4h4.17l2.55,0,.032-.129.042-.168.041-.167c.04-.155.085-.306.137-.457l.056-.164.06-.177c.224-.661.439-1.326.65-1.992q.232-.729.466-1.46l.045-.14q.118-.366.237-.732l.068-.211c.3-.932.3-.932.727-1.219l.118-.08A1.107,1.107,0,0,1,0-.005ZM-.358,4.916c-.091.27-.182.538-.272.809l-.042.124c-.158.471-.313.942-.46,1.419l-.038.123c-.06.194-.12.388-.179.584-.3.968-.3.968-.65,1.244a1.9,1.9,0,0,1-.84.176l-.124,0-.4,0-.281,0-.737.005-.753.006-1.475.011c.068.2.163.243.343.362l.184.124.1.065c.147.1.292.2.437.307l.089.064.186.134.208.15c.424.3.845.609,1.265.922l.1.074a1.786,1.786,0,0,1,.64.686l.051.11a1.355,1.355,0,0,1-.055.814l-.06.192-.067.206-.068.215c-.128.4-.26.8-.393,1.2l-.042.125q-.1.3-.2.6a8.009,8.009,0,0,0-.3,1.075,2.04,2.04,0,0,0,.625-.374l.22-.168.115-.088c.187-.141.377-.277.568-.413.373-.268.743-.538,1.111-.814.819-.6.819-.6,1.362-.625a2.2,2.2,0,0,1,.994.51L1,15.044l.11.085c.182.137.369.267.558.4.32.223.63.455.937.7a9.034,9.034,0,0,0,.973.681,8.552,8.552,0,0,0-.347-1.28l-.123-.376c-.126-.388-.256-.773-.388-1.163L2.66,13.9q-.058-.17-.118-.339a1.824,1.824,0,0,1-.09-1.321,2.072,2.072,0,0,1,.691-.666l.125-.089.368-.26.355-.253.085-.06c.3-.216.6-.436.9-.656.178-.132.355-.263.538-.39l.154-.109.13-.09c.108-.077.108-.077.145-.233H5.785L4.3,9.42l-.763-.006L2.8,9.408l-.281,0-.395,0H2.006a1.094,1.094,0,0,1-.748-.285A4.4,4.4,0,0,1,.644,7.664L.563,7.42c-.208-.63-.408-1.26-.6-1.895L-.1,5.33l-.052-.171a.851.851,0,0,0-.094-.235h-.1Z" transform="translate(41.278)" fill="#eee"/>
    </g>
  </g>
</svg>
