<svg xmlns="http://www.w3.org/2000/svg" xmlns:xlink="http://www.w3.org/1999/xlink" width="82" height="82" viewBox="0 0 82 82">
  <defs>
    <clipPath id="clip-path">
      <rect id="Rectangle_36" data-name="Rectangle 36" width="82" height="82" transform="translate(1154 3014)" fill="#369dba"/>
    </clipPath>
  </defs>
  <g id="satisfaction" transform="translate(-1154 -3014)" clip-path="url(#clip-path)">
    <g id="_2b1jOstVKmSn1JgVhgi5mNvslsi" data-name="2b1jOstVKmSn1JgVhgi5mNvslsi" transform="translate(1154.032 3014.011)">
      <path id="Path_24" data-name="Path 24" d="M0,0A1.469,1.469,0,0,1,.538.779,4.386,4.386,0,0,1,.507,1.788l-.021.175a21.209,21.209,0,0,1-.7,3.412.7.7,0,0,0-.042.361H-.16l5.481.012.661,0h.133l2.126,0,2.182.005,1.342,0,.922,0h.533c1.624,0,1.624,0,2.357.339l.1.047a4.894,4.894,0,0,1,2.454,2.659,4.685,4.685,0,0,1-.154,3.591c-.126.26-.264.512-.41.763l.1.058a4.65,4.65,0,0,1,2.167,2.848,4.9,4.9,0,0,1-.584,3.76,5.907,5.907,0,0,1-.506.656l-.092.107a4.115,4.115,0,0,1-1.035.763h-.1l.08.134a4.989,4.989,0,0,1,.63,3.811c-.03.1-.063.2-.1.3l-.037.11a4.482,4.482,0,0,1-2.116,2.556,2.192,2.192,0,0,0,.243.474,4.546,4.546,0,0,1,.476,3.32,4.846,4.846,0,0,1-2.064,2.925,6.474,6.474,0,0,1-3.545.717H7.06l-1.7,0-1.747,0H.779a1.93,1.93,0,0,1-1.035-.266,1.36,1.36,0,0,1-.439-.943,1.192,1.192,0,0,1,.366-.85A1.306,1.306,0,0,1,.6,33.312l.126-.006c.661-.027,1.327-.019,1.988-.017h.416l1.009,0-.063-.154a4.981,4.981,0,0,1-.126-3.857A6.674,6.674,0,0,1,4.38,28.5c.078-.114.078-.114.07-.225-.081-.056-.165-.107-.25-.157a4.641,4.641,0,0,1-2.044-2.859,4.915,4.915,0,0,1,.656-3.694,4.352,4.352,0,0,1,1.639-1.486,3.437,3.437,0,0,0-.2-.449,4.706,4.706,0,0,1-.483-3.606,5.445,5.445,0,0,1,.6-1.3c.1-.121.1-.121.09-.236-.076-.049-.155-.094-.234-.138A4.891,4.891,0,0,1,2.135,11.2a4.634,4.634,0,0,1-.007-1.829l.022-.12a6.631,6.631,0,0,1,.407-1.163l-3.33.051c-.013.707-.013.707-.024,1.409a8.8,8.8,0,0,1-1.767,5.43l-.09.121a8.394,8.394,0,0,1-5.533,3.1c-1.3.174-1.3.174-1.747-.149a2.013,2.013,0,0,1-.307-.359l-.1-.138a1.4,1.4,0,0,1,.019-1,1.46,1.46,0,0,1,.671-.6,3.89,3.89,0,0,1,.717-.086,6.226,6.226,0,0,0,4.185-1.983q.1-.114.189-.231l.1-.123A6.348,6.348,0,0,0-3.222,9.489c0-.188,0-.376,0-.564,0-.237,0-.474,0-.712a5.638,5.638,0,0,1,.36-2.454,4.625,4.625,0,0,0,.17-.5l.055-.185.054-.186.029-.1a19.611,19.611,0,0,0,.686-3.473,1.666,1.666,0,0,1,.449-1.2A1.279,1.279,0,0,1,.007-.03ZM5.174,8.658l-.1.074a2.4,2.4,0,0,0-.722,1.46,2.446,2.446,0,0,0,.661,1.793,2.351,2.351,0,0,0,1.65.671H7.3l.738,0h.256l1.2,0,1.383,0,1.071,0,.64,0H13.4a2.719,2.719,0,0,0,1.967-.645,2.443,2.443,0,0,0,.671-1.88,2.329,2.329,0,0,0-.784-1.516A3.344,3.344,0,0,0,13,8.078H7.368a3.255,3.255,0,0,0-2.2.569Zm1.434,7.07-.076.081a2.264,2.264,0,0,0,.179,3.166,3.056,3.056,0,0,0,2.136.6H14.94a2.97,2.97,0,0,0,2.018-.63,2.29,2.29,0,0,0-.087-3.417,2.919,2.919,0,0,0-2.044-.543H8.651a2.471,2.471,0,0,0-2.034.738Zm-1.7,6.967a2.652,2.652,0,0,0-.507,1.921,2.307,2.307,0,0,0,.85,1.4,2.707,2.707,0,0,0,1.7.468l.193,0,.517.007.325,0c1.419.019,2.838.027,4.257.016h.147c.27,0,.543,0,.809-.01l.237,0a2.775,2.775,0,0,0,1.952-.666,2.377,2.377,0,0,0,.656-1.87,2.152,2.152,0,0,0-.528-1.245l-.074-.1a2.171,2.171,0,0,0-1.311-.671c-.111,0-.222-.007-.333-.007h-2.89l-1.414,0-1.1,0H6.909a2.511,2.511,0,0,0-2,.763Zm1.6,6.916A2.424,2.424,0,0,0,6,31.48a2.318,2.318,0,0,0,.871,1.434,3.835,3.835,0,0,0,2.172.476h.849l.733,0h.838a3.2,3.2,0,0,0,2.367-.692,2.483,2.483,0,0,0,.645-1.829,2.126,2.126,0,0,0-.584-1.286l-.118-.134a2.488,2.488,0,0,0-1.793-.64H10.553l-.763,0H8.914a2.92,2.92,0,0,0-2.4.815Z" transform="translate(47.335 41.341)" fill="#369dba"/>
      <path id="Path_25" data-name="Path 25" d="M0,0,.1.076A5.419,5.419,0,0,1,1.638,3.124l.047.173c.187.7.346,1.393.489,2.1.016.079.032.158.049.236C2.5,6.971,2.5,6.971,2.25,7.488a1.282,1.282,0,0,1-.815.553A1.258,1.258,0,0,1,.467,7.81a1.755,1.755,0,0,1-.5-1.086l-.049-.261-.025-.137c-.168-.907-.359-1.8-.6-2.689l-.04-.15a2.82,2.82,0,0,0-.984-1.8,2,2,0,0,0-1.445-.221,1.86,1.86,0,0,0-1.178.922,2.934,2.934,0,0,0-.214,1.286q0,.159,0,.319v.165A16.465,16.465,0,0,1-4.766,6.91l-.026.151a11.288,11.288,0,0,1-2.075,4.872l-.091.122c-.087.115-.177.227-.268.339l-.121.15c-.324.394-.676.758-1.035,1.122l-.134.135a10.223,10.223,0,0,1-.835.743c-.164.132-.322.269-.481.407-.523.449-1.071.856-1.629,1.26-.325.239-.645.486-.963.733q-.376.294-.758.579a31.222,31.222,0,0,0-3.007,2.51c-.153.147-.31.285-.471.423l-.268.242-.13.106a.906.906,0,0,0-.346.692l0,.119,0,.133c-.022.743-.016,1.491-.015,2.239q0,.355,0,.712,0,.614,0,1.229c0,.594,0,1.183,0,1.778,0,.958,0,1.921,0,2.879q0,1.4,0,2.8c0,.057,0,.115,0,.175,0,.289,0,.579,0,.866q0,3.589,0,7.172l.144.021.538.08.232.034a12.206,12.206,0,0,1,3.028.789l.112.047a9.457,9.457,0,0,1,1.527.856,4.627,4.627,0,0,0,2.864.948H-8.3l.727,0H-7.2l1.7,0,1.148,0h.6l.569,0h.307a1.414,1.414,0,0,1,1.025.319,1.413,1.413,0,0,1,.377,1.014A1.458,1.458,0,0,1-2,46.576a3.022,3.022,0,0,1-1.46.2H-8.329a7.38,7.38,0,0,1-4.79-1.311,8.273,8.273,0,0,0-3.606-1.342c-.234-.039-.466-.082-.7-.125,0,.055,0,.11,0,.166,0,.205,0,.41-.005.615,0,.089,0,.177,0,.265a1.828,1.828,0,0,1-.43,1.445c-.485.415-1.352.29-1.952.289h-8.868C-30,46.79-30,46.79-30.44,46.355a1.333,1.333,0,0,1-.314-.9v-.14c0-.05,0-.1,0-.152s0-.108,0-.163c0-.18,0-.361,0-.543q0-.194,0-.387c0-.315,0-.63,0-.943,0-.256,0-.511,0-.768,0-.727,0-1.45,0-2.177,0-.039,0-.078,0-.118s0-.078,0-.118c0-.635,0-1.27,0-1.9q0-.976,0-1.952c0-.366,0-.733,0-1.1q0-.516,0-1.03c0-.126,0-.253,0-.379q0-.258,0-.517v-.152a1.483,1.483,0,0,1,.372-1.107,1.263,1.263,0,0,1,.973-.307,1.359,1.359,0,0,1,.917.594,1.177,1.177,0,0,1,.116.538v.414q0,.247,0,.493c0,.118,0,.235,0,.353,0,.32,0,.64,0,.958,0,.334,0,.666,0,1,0,.558,0,1.122.006,1.68,0,.579,0,1.153.006,1.732v.109q0,.47,0,.937.008,2.021.015,4.042l8.5.051V16.695l-8.5.051,0,2.4c0,.5,0,1,0,1.5q0,1.191-.006,2.382,0,.868,0,1.737c0,.306,0,.615,0,.917s0,.579,0,.866c0,.106,0,.212,0,.317,0,.144,0,.289,0,.434v.126a1.28,1.28,0,0,1-.317.85,1.436,1.436,0,0,1-1.03.377,1.251,1.251,0,0,1-.779-.479,1.312,1.312,0,0,1-.263-.779v-.272c0-.05,0-.1,0-.151,0-.168,0-.336,0-.5,0-.12,0-.24,0-.36,0-.326,0-.651,0-.978,0-.238,0-.476,0-.712q0-.961,0-1.921c0-.036,0-.073,0-.11s0-.073,0-.11q0-.884,0-1.767c0-.6,0-1.214,0-1.819,0-.34,0-.681,0-1.019,0-.32,0-.64,0-.958q0-.176,0-.352,0-.241,0-.481v-.141a1.45,1.45,0,0,1,.372-1.081,1.51,1.51,0,0,1,1.066-.315h.931l1.086,0h.374l1.757,0,2.029,0,1.568,0,.937,0h1.2c1.127-.007,1.127-.007,1.614.345a1.431,1.431,0,0,1,.36,1.173c0,.058,0,.117,0,.177,0,.186,0,.371-.006.558q0,.19,0,.38c0,.309-.006.62-.01.927a4.021,4.021,0,0,0,.589-.464c.251-.235.512-.45.784-.661.193-.149.382-.3.569-.461.3-.25.6-.482.917-.712.219-.162.435-.328.651-.494.282-.216.564-.431.85-.645l.1-.076.517-.387c.4-.3.789-.6,1.168-.917l.084-.07a14.889,14.889,0,0,0,2.275-2.234l.121-.155A9.505,9.505,0,0,0-7.015,4.973q0-.152,0-.3,0-.235.005-.471A5.5,5.5,0,0,1-5.8.279,4.378,4.378,0,0,1-.007.023Z" transform="translate(45.286 30.276)" fill="#369dba"/>
      <path id="Path_26" data-name="Path 26" d="M0,0A3.17,3.17,0,0,1,1.311,1.455l.1.189c.249.46.48.927.7,1.4.045.1.092.191.14.285a3.191,3.191,0,0,1,.157.42,1.557,1.557,0,0,0,.436.727,4.661,4.661,0,0,0,1.491.268c.221.02.441.045.661.071.172.019.344.038.517.053a3.045,3.045,0,0,1,2.064.84A2.574,2.574,0,0,1,8.2,7.433a2.9,2.9,0,0,1-.876,1.629l-.073.081a.739.739,0,0,1-.349.248l-.051.154a1.626,1.626,0,0,1-.171.152c-.3.252-.569.528-.84.8l-.159.16-.292.294a2.285,2.285,0,0,1-.245.225c-.1.1-.1.1-.089.252l.03.176.016.1c.019.116.04.231.061.347l.047.277c.052.308.107.615.161.922q.042.238.084.476.026.147.052.294a3.488,3.488,0,0,1-.253,2.51,1.968,1.968,0,0,1-1.358.815A4.372,4.372,0,0,1,1.311,16.6l-.224-.117L.544,16.2l-.419-.218-.262-.137-.117-.061a4.741,4.741,0,0,1-.427-.249,1.472,1.472,0,0,0-.569.2l-.09.046-.288.151-.2.1c-.408.213-.815.432-1.214.656a3.152,3.152,0,0,1-2.5.5,2.633,2.633,0,0,1-.83-.484l-.1-.078a2.2,2.2,0,0,1-.681-1.347A10.35,10.35,0,0,1-6.9,13.174c.031-.174.061-.349.091-.523.173-1,.173-1,.219-1.2.031-.116.031-.116-.032-.207l-.085-.089-.1-.107-.121-.122-.143-.147q-.2-.207-.408-.411l-.255-.256c-.286-.286-.574-.564-.881-.825a3.3,3.3,0,0,1-1.188-2.08A1.994,1.994,0,0,1-9.235,5.7,3.887,3.887,0,0,1-6.9,4.837l.191-.026.6-.081.6-.081.372-.05a3.663,3.663,0,0,0,.83-.173,2.137,2.137,0,0,0,.2-.39l.105-.241.052-.123c.073-.167.154-.329.236-.491.134-.264.265-.528.395-.794l.141-.286.135-.277A3.466,3.466,0,0,1-1.289-.083,1.907,1.907,0,0,1,.012,0ZM-.789,2.684a4.209,4.209,0,0,0-.451.82c-.218.46-.436.917-.661,1.373-.033.067-.065.133-.1.2A2.807,2.807,0,0,1-3.56,6.68a5.158,5.158,0,0,1-.825.174l-.2.032c-.866.138-1.737.246-2.608.356v.154h.1l.051.154a1.343,1.343,0,0,0,.18.161c.24.2.464.421.686.64l.128.126.264.263L-5.508,9l.392.388L-5,9.511a2.852,2.852,0,0,1,.574.8l.049.1a2.778,2.778,0,0,1,.076,1.6l-.028.175c-.093.584-.2,1.163-.3,1.747l-.02.109-.053.293c-.031.179-.057.358-.082.538a4.025,4.025,0,0,0,.7-.3l.111-.057.235-.121.365-.189c.338-.175.676-.35,1.009-.528l.132-.071.225-.123a2.452,2.452,0,0,1,1.25-.322l.106,0a2.888,2.888,0,0,1,1.317.4l.132.067c.477.244.948.5,1.414.763l.579.315.1.052a.643.643,0,0,0,.327.114c-.031-.38-.089-.753-.157-1.127L2.994,13.4c-.033-.184-.065-.368-.1-.553-.361-2-.361-2,.152-2.812a4.727,4.727,0,0,1,.763-.85C4.022,9,4.222,8.8,4.42,8.6L4.525,8.5l.327-.329.224-.224q.273-.274.543-.548l-.051-.154L5.45,7.226,4.338,7.072l-.574-.079-.553-.077L3,6.888A2.87,2.87,0,0,1,.968,5.955a7.2,7.2,0,0,1-.509-.927Q.267,4.643.073,4.26L-.14,3.834l-.109-.217-.16-.32-.049-.1c-.085-.169-.161-.338-.228-.512h-.1Z" transform="translate(73.769 25.768)" fill="#369dba"/>
      <path id="Path_27" data-name="Path 27" d="M0,0A3.538,3.538,0,0,1,1.117,1.445l.109.219.059.118c.089.177.177.353.266.528l.286.569.148.294L2.2,3.6l.068.133.061.122.054.108a.323.323,0,0,1,.038.191l.2.023c.661.079,1.317.168,1.972.262l.275.039c2,.278,2,.278,2.679,1.06a2.243,2.243,0,0,1,.314,1.778,4.349,4.349,0,0,1-1.44,1.911L6.3,9.351a2.248,2.248,0,0,1-.411.305,2.573,2.573,0,0,0-1.214,1.317,8.255,8.255,0,0,0,.44,2.766,2.674,2.674,0,0,1-.107,2.029c-.088.132-.181.256-.281.38l-.078.1a2.451,2.451,0,0,1-1.7.727,2.947,2.947,0,0,1-1.532-.453L.992,16.3c-.423-.219-.845-.439-1.265-.666l-.134-.072-.246-.133a1.213,1.213,0,0,0-.558-.2,2.966,2.966,0,0,0-.349.176l-.207.116-.107.06c-.16.089-.325.169-.489.25-.4.2-.8.407-1.194.615a3.444,3.444,0,0,1-2.623.472A2.022,2.022,0,0,1-7.3,15.865a3.755,3.755,0,0,1-.1-2.177l.052-.3c.024-.137.048-.275.073-.412.037-.208.073-.416.109-.625q.042-.243.085-.485a1.873,1.873,0,0,0,.074-1.019l-.093-.092-.1-.1c-.125-.115-.252-.228-.382-.337a2.609,2.609,0,0,1-.286-.272v-.1l-.082-.032A2.146,2.146,0,0,1-8.4,9.538l-.093-.092-.194-.193c-.1-.1-.195-.193-.293-.289a3.146,3.146,0,0,1-1.178-2.2A1.806,1.806,0,0,1-9.589,5.4a4.4,4.4,0,0,1,2.618-.932l.19-.026.789-.106.579-.079.18-.023.166-.023.147-.02A.434.434,0,0,0-4.645,4c.054-.094.1-.19.152-.287l.088-.176.093-.19.1-.195q.264-.534.517-1.071C-2.776.132-2.776.132-1.823-.268A2.088,2.088,0,0,1,0-.005ZM-1.214,2.367l-.054.112c-.2.422-.406.845-.61,1.265l-.1.216q-.152.314-.306.625l-.1.2A2.724,2.724,0,0,1-3.926,6.359c-.151.044-.3.075-.457.1l-.132.025C-5.1,6.6-5.7,6.676-6.3,6.757l-.356.049-.861.117c-.016.153-.016.153.074.246l.1.1.111.111.117.115.116.116a.637.637,0,0,0,.4.284V8a1.333,1.333,0,0,0,.173.154c.263.224.508.464.753.707l.133.13a2.591,2.591,0,0,1,.953,1.885,8.433,8.433,0,0,1-.185,1.506l-.048.272c-.06.339-.121.676-.187,1.014l-.022.112c-.019.1-.039.2-.059.3a2.513,2.513,0,0,0-.027.48c.64-.291,1.265-.61,1.885-.948.3-.163.6-.324.907-.478l.172-.087a2.37,2.37,0,0,1,1.7-.127,10.563,10.563,0,0,1,1.224.569l.166.087q.64.337,1.27.692l.131.073.114.064a2.991,2.991,0,0,0,.425.16l-.024-.144c-.073-.439-.147-.876-.219-1.317q-.052-.31-.1-.62-.046-.273-.091-.543c-.017-.1-.033-.2-.05-.3a2.718,2.718,0,0,1,.335-2.044,3.891,3.891,0,0,1,.594-.62c.224-.2.435-.4.645-.615l.115-.116.36-.362.246-.247c.2-.2.4-.4.6-.6l-.051-.1a1.56,1.56,0,0,0-.287-.051L4.77,6.857l-.1-.013L4.357,6.8l-.774-.107L2.933,6.6l-.3-.041A2.875,2.875,0,0,1,.539,5.518a3.483,3.483,0,0,1-.384-.686l-.12-.26-.059-.13c-.082-.176-.169-.35-.256-.523l-.049-.1-.1-.2C-.555,3.374-.677,3.13-.8,2.886l-.148-.295-.109-.218h-.154Z" transform="translate(42.11 5.277)" fill="#369dba"/>
      <path id="Path_28" data-name="Path 28" d="M0,0A8,8,0,0,1,1.025,1.834l.126.254.243.49q.111.224.224.447l.051.1.136.267a.383.383,0,0,1,.061.235l.2.023c.661.079,1.322.169,1.983.264l.278.04c2.013.285,2.013.285,2.669,1.055a1.935,1.935,0,0,1,.325,1.562A4.035,4.035,0,0,1,5.964,8.647h-.1v.1a1.636,1.636,0,0,1-.167.148c-.3.254-.574.533-.85.815l-.161.161-.293.3a1.85,1.85,0,0,1-.2.19c-.079.079-.079.079-.072.189l.022.123.023.14.028.152.027.158q.043.252.089.5l.057.33c.037.215.075.43.113.645.048.273.1.548.143.82l.019.109a2.488,2.488,0,0,1-.365,1.957,2.435,2.435,0,0,1-1.6.943A2.947,2.947,0,0,1,.874,16c-.153-.08-.307-.159-.461-.239l-.356-.184-.18-.093c-.274-.142-.548-.285-.82-.434l-.135-.073c-.081-.045-.163-.09-.244-.136l-.109-.059-.093-.052a.929.929,0,0,0-.692.187l-.1.051-.313.164-.216.113q-.527.274-1.05.553a3.787,3.787,0,0,1-2.859.594,2.005,2.005,0,0,1-1.086-.953c-.053-.127-.1-.253-.137-.383l-.064-.185a6.535,6.535,0,0,1,.2-2.479c.031-.173.061-.347.091-.523.034-.2.068-.39.1-.584.02-.112.04-.225.059-.337.015-.087.03-.173.047-.259A.411.411,0,0,0-7.6,10.3a.947.947,0,0,0-.269-.215v-.1l-.092-.042a1.053,1.053,0,0,1-.273-.209l-.091-.091-.1-.1-.1-.1L-8.84,9.12l-.213-.214-.392-.4c-.174-.176-.349-.351-.528-.528a2.98,2.98,0,0,1-.82-1.793,2.068,2.068,0,0,1,.528-1.337,2.738,2.738,0,0,1,.635-.42l.1-.051a5.633,5.633,0,0,1,1.7-.408l.214-.03.444-.062L-6.6,3.8l.543-.077.1-.015.291-.041.168-.023a1.254,1.254,0,0,1,.233-.016l.044-.112c.055-.135.115-.266.178-.4l.07-.146L-4.9,2.82l.077-.16c.189-.393.38-.784.579-1.173.064-.127.127-.254.19-.382A2.991,2.991,0,0,1-2.573-.571,2.461,2.461,0,0,1-.012,0ZM-1.721,1.783a4.835,4.835,0,0,0-.343.656q-.252.541-.523,1.071c-.08.159-.159.319-.237.479A3.027,3.027,0,0,1-4.488,5.817a7.893,7.893,0,0,1-1.3.248l-.3.046c-.676.1-1.352.2-2.034.28A1.344,1.344,0,0,0-7.8,6.83l.131.131.137.135.137.138.131.13.12.119c.09.1.09.1.2.086l.051.154a1.148,1.148,0,0,0,.16.141,3.769,3.769,0,0,1,1.6,2.31,9.584,9.584,0,0,1-.213,1.813l-.057.332c-.073.43-.147.861-.238,1.286a1.809,1.809,0,0,0-.02.418c.345-.139.671-.311,1-.484l.184-.1c.438-.228.871-.462,1.3-.707a2.749,2.749,0,0,1,2.039-.395,8.165,8.165,0,0,1,1.378.615l.169.088c.349.183.7.373,1.035.569a8.384,8.384,0,0,0,.83.405c-.03-.385-.079-.763-.144-1.142l-.027-.16-.085-.5-.085-.5L1.881,11.4a2.949,2.949,0,0,1,.246-2.269A9.238,9.238,0,0,1,3.3,7.906c.324-.3.64-.615.953-.927l.073-.074.41-.413-.051-.1A1.56,1.56,0,0,0,4.4,6.339l-.186-.026-.1-.013L3.8,6.257l-.774-.107-.651-.09-.3-.041A2.859,2.859,0,0,1-.014,4.98a4.557,4.557,0,0,1-.435-.758l-.073-.149C-.7,3.717-.865,3.36-1.033,3c-.2-.415-.411-.82-.63-1.224h-.051Z" transform="translate(60.398 12.192)" fill="#369dba"/>
      <path id="Path_29" data-name="Path 29" d="M0,0,.083.07v.1L.172.206A2.615,2.615,0,0,1,.935,1.3l.107.217.057.117c.111.224.223.447.336.671l.215.428.148.294.216.43.068.133.061.122.054.108a.323.323,0,0,1,.038.191l.2.023c.661.079,1.322.168,1.983.262l.277.039A3.765,3.765,0,0,1,7.339,5.5a2.241,2.241,0,0,1,.307,1.68,3.411,3.411,0,0,1-.953,1.5l-.074.076c-.236.242-.472.482-.727.7-.3.26-.574.548-.85.83l-.214.217-.127.13c-.1.093-.1.093-.206.093.055.341.111.681.166,1.019l.056.346.055.337.054.332q.061.375.124.748l.022.127c.013.076.026.152.039.228a2.886,2.886,0,0,1-.38,2.126,2.153,2.153,0,0,1-1.434.871,4.324,4.324,0,0,1-2.4-.712l-.254-.132Q.023,15.743-.5,15.467l-.136-.073-.234-.127a1.3,1.3,0,0,0-.528-.189,1.284,1.284,0,0,0-.308.141l-.089.047-.287.154-.2.106-.405.216c-.281.15-.564.3-.845.444l-.14.073-.389.2-.138.072-.136.07-.12.062a2.419,2.419,0,0,1-1.757,0,2.4,2.4,0,0,1-1.373-1.373,3.247,3.247,0,0,1,0-1.737l.052-.3c.024-.138.048-.275.073-.413.043-.241.085-.483.127-.722q.033-.192.068-.384a1.985,1.985,0,0,0,.076-1.071l-.092-.075c-.5-.411-.958-.856-1.414-1.311l-.252-.247a3.651,3.651,0,0,1-1.414-2.4A2.041,2.041,0,0,1-9.778,5.26c1-.881,2.336-.9,3.6-1.066l.579-.079.18-.023.166-.023.147-.02a.431.431,0,0,0,.276-.186c.064-.114.123-.226.18-.343l.051-.1c.055-.11.109-.219.163-.329l.112-.226c.185-.374.367-.748.543-1.127A3.735,3.735,0,0,1-1.992-.355,2.114,2.114,0,0,1,.006,0ZM-1.4,2.223l-.193.4-.168.348c-.132.276-.264.553-.393.83C-3.1,5.82-3.1,5.82-4.007,6.184a3.8,3.8,0,0,1-.589.14l-.14.026c-.6.108-1.2.189-1.8.27l-.356.049-.856.117a1.184,1.184,0,0,0,.244.358l.085.084.088.086.085.085c.147.145.3.285.454.42.273.236.528.489.784.743l.172.169a2.868,2.868,0,0,1,1.076,1.983,11.037,11.037,0,0,1-.245,1.824q-.049.28-.1.564-.03.174-.06.347c-.056.324-.1.645-.128.973.349-.141.676-.316,1.014-.49l.185-.1q.6-.314,1.2-.635l.312-.164.107-.056a2.4,2.4,0,0,1,.953-.29l.174-.015A2.761,2.761,0,0,1-.079,13l.139.068c.434.215.861.447,1.286.681.276.152.553.3.83.447l.126.067a.833.833,0,0,0,.344.151,11.021,11.021,0,0,0-.157-1.306l-.062-.358q-.049-.277-.1-.553t-.1-.543l-.03-.165A2.58,2.58,0,0,1,2.488,9.55c.051-.069.1-.138.157-.2l.073-.094c.162-.2.162-.2.285-.264v-.1L3.1,8.843a1.149,1.149,0,0,0,.288-.225l.1-.1.107-.109L3.7,8.3l.351-.354L4.29,7.7l.434-.437q.19-.191.38-.382l-.051-.1a1.56,1.56,0,0,0-.287-.051L4.58,6.707l-.1-.013-.312-.043-.774-.107-.651-.09-.3-.041a2.839,2.839,0,0,1-2-.9A15.271,15.271,0,0,1-.639,3.442c-.194-.408-.4-.809-.6-1.214h-.154Z" transform="translate(24.59 11.834)" fill="#369dba"/>
      <path id="Path_30" data-name="Path 30" d="M0,0A4.015,4.015,0,0,1,1.178,1.726c.095.207.195.411.3.615l.049.1.238.472L2,3.375l.077.151.071.14.064.126a.338.338,0,0,1,.045.2l.091.013.948.132.353.049c.574.079,1.148.159,1.716.247l.116.018a2.812,2.812,0,0,1,1.844.973,2.275,2.275,0,0,1,.349,1.793A4.91,4.91,0,0,1,6.123,9.245l-.342.342-.221.221-.1.1a6.044,6.044,0,0,1-.835.733c-.2.317.019.953.081,1.306l.03.176q.048.276.1.553.064.364.127.727l.029.166a2.912,2.912,0,0,1-.354,2.362,2.466,2.466,0,0,1-1.568.866,3.756,3.756,0,0,1-2.275-.686c-.372-.206-.748-.406-1.127-.6l-.229-.121-.323-.17-.1-.053a.531.531,0,0,0-.353-.1,2.143,2.143,0,0,0-.3.127l-.112.057-.12.062-.127.065-.4.207-.261.134c-.352.181-.707.363-1.055.548l-.132.07-.246.132a4.1,4.1,0,0,1-.994.371l-.1.029A2.129,2.129,0,0,1-6.759,16.6a2.278,2.278,0,0,1-.912-1.552,6.347,6.347,0,0,1,.162-1.829q.07-.4.138-.8.061-.356.123-.712l.046-.264.022-.122a.893.893,0,0,0-.01-.661l-.083-.08-.092-.091-.1-.092-.093-.091c-.155-.15-.314-.295-.478-.435-.28-.243-.543-.5-.8-.763l-.179-.176a3.359,3.359,0,0,1-1.209-2.28,2.156,2.156,0,0,1,.671-1.527,3.389,3.389,0,0,1,1.865-.733l.326-.047c.355-.052.712-.1,1.066-.143l.478-.06.23-.026a1.386,1.386,0,0,0,.758-.2,1.7,1.7,0,0,0,.163-.335q.081-.163.162-.325l.132-.276c.078-.165.158-.33.237-.495l.048-.1C-3,.1-3,.1-2.212-.259A2.387,2.387,0,0,1-.01,0ZM-1.332,2.2c-.2.405-.406.809-.6,1.219q-.138.28-.277.558l-.142.288q-.1.212-.21.423l-.062.129a3.721,3.721,0,0,1-.427.671.661.661,0,0,0-.122.2c-.063.123-.128.143-.253.2l-.09.059a2.277,2.277,0,0,1-.748.3l-.113.026c-.533.118-1.071.191-1.614.268l-.324.048c-.866.127-.866.127-1.224.155-.1.012-.1.012-.194.121l.359.362.1.1c.162.163.325.321.5.47.27.234.523.485.779.738l.171.168a2.879,2.879,0,0,1,1.091,2.029,12.208,12.208,0,0,1-.317,2.228c-.039.207-.076.414-.114.62-.017.094-.035.188-.053.282l-.023.124-.02.105a1.116,1.116,0,0,0-.014.3,3.6,3.6,0,0,0,.615-.255l.175-.091.183-.1.189-.1c.312-.163.62-.329.927-.507a3.5,3.5,0,0,1,2.546-.61,15.19,15.19,0,0,1,2.469,1.245,2.288,2.288,0,0,0,.891.41l-.141-.9-.021-.135c-.083-.528-.169-1.055-.264-1.583A2.914,2.914,0,0,1,2.6,9.413a8.421,8.421,0,0,1,.891-.932l.224-.222c.292-.288.584-.569.9-.83.087-.085.172-.17.256-.256l.256-.256-.051-.154-.183-.025c-.671-.092-1.347-.186-2.018-.282L2.76,6.44C1.5,6.261,1.5,6.261,1.028,5.994l-.1-.053A2.58,2.58,0,0,1,.071,4.8l-.108-.218-.056-.114c-.092-.187-.186-.374-.28-.558l-.112-.224-.056-.112q-.342-.684-.686-1.368h-.1Z" transform="translate(10.194 26.229)" fill="#369dba"/>
      <path id="Path_31" data-name="Path 31" d="M0,0A1.222,1.222,0,0,1,.475.886l0,.186v.1c0,.112,0,.224,0,.337,0,.079,0,.157,0,.236q0,.247,0,.494c0,.21,0,.42,0,.63,0,.162,0,.325,0,.488q0,.116,0,.232a1.792,1.792,0,0,1-.355,1.3,1.3,1.3,0,0,1-.84.337,1.3,1.3,0,0,1-.886-.367A1.4,1.4,0,0,1-1.912,3.9V3.8c0-.11,0-.219,0-.328,0-.077,0-.153,0-.23q0-.241,0-.482c0-.2,0-.409,0-.615q0-.237,0-.475c0-.075,0-.151,0-.226A1.945,1.945,0,0,1-1.628.189,1.266,1.266,0,0,1,0,0Z" transform="translate(21.26 51.945)" fill="#369dba"/>
    </g>
  </g>
</svg>
